# This file uses centimeters as units for non-parametric coordinates.

mtllib Deltoid-icositetrahedron (trapezohedron).mtl
g default
v -0.766379 -0.766379 0.766379
v 0.766379 -0.766379 0.766379
v -0.766379 0.766379 0.766379
v 0.766379 0.766379 0.766379
v -0.766379 0.766379 -0.766379
v 0.766379 0.766379 -0.766379
v -0.766379 -0.766379 -0.766379
v 0.766379 -0.766379 -0.766379
v 0.000000 -1.017991 1.017991
v 0.000000 1.017991 1.017991
v 0.000000 1.017991 -1.017991
v 0.000000 -1.017991 -1.017991
v -1.017991 1.017991 0.000000
v -1.017991 -1.017991 0.000000
v 0.000000 -1.514112 0.000000
v 1.017991 -1.017991 0.000000
v 1.017991 1.017991 0.000000
v 0.000000 1.514112 0.000000
v -0.999236 0.000000 0.999236
v -1.514112 0.000000 0.000000
v -0.999236 0.000000 -0.999236
v 0.000000 0.000000 -1.546575
v 0.999236 0.000000 -0.999236
v 1.514112 0.000000 0.000000
v 0.999236 0.000000 0.999236
v 0.000000 0.000000 1.546575
vt 0.375000 0.000000
vt 0.500000 0.000000
vt 0.500000 0.125000
vt 0.375000 0.125000
vt 0.375000 0.250000
vt 0.500000 0.250000
vt 0.500000 0.375000
vt 0.375000 0.375000
vt 0.375000 0.625000
vt 0.500000 0.625000
vt 0.500000 0.750000
vt 0.375000 0.750000
vt 0.375000 0.875000
vt 0.500000 0.875000
vt 0.500000 1.000000
vt 0.375000 1.000000
vt 0.625000 0.000000
vt 0.750000 0.000000
vt 0.750000 0.125000
vt 0.625000 0.125000
vt 0.250000 0.125000
vt 0.250000 0.000000
vt 0.625000 0.375000
vt 0.625000 0.250000
vt 0.625000 0.625000
vt 0.625000 0.750000
vt 0.625000 0.875000
vt 0.625000 1.000000
vt 0.125000 0.000000
vt 0.125000 0.125000
vt 0.875000 0.125000
vt 0.875000 0.000000
vt 0.500000 0.500000
vt 0.625000 0.500000
vt 0.375000 0.500000
vt 0.250000 0.250000
vt 0.125000 0.250000
vt 0.750000 0.250000
vt 0.875000 0.250000
vn -0.424442 -0.401673 0.811485
vn 0.000000 -0.443615 0.896218
vn 0.000000 0.000000 1.000000
vn -0.463475 0.000000 0.886110
vn -0.401545 0.823118 0.401545
vn 0.000000 0.898758 0.438445
vn 0.000000 1.000000 0.000000
vn -0.438445 0.898758 0.000000
vn -0.463475 0.000000 -0.886110
vn -0.000000 0.000000 -1.000000
vn 0.000000 -0.443615 -0.896218
vn -0.424442 -0.401673 -0.811485
vn -0.438445 -0.898758 0.000000
vn 0.000000 -1.000000 0.000000
vn 0.000000 -0.898758 0.438445
vn -0.401545 -0.823118 0.401545
vn 0.823011 -0.390109 0.412878
vn 0.903627 -0.428321 0.000000
vn 1.000000 0.000000 0.000000
vn 0.893830 0.000000 0.448406
vn -0.893830 0.000000 0.448406
vn -1.000000 0.000000 -0.000000
vn -0.903627 -0.428321 0.000000
vn -0.823011 -0.390109 0.412878
vn 0.463475 0.000000 0.886110
vn 0.000000 0.000000 1.000000
vn 0.000000 -0.443615 0.896218
vn 0.424442 -0.401673 0.811485
vn 0.438445 0.898758 0.000000
vn 0.000000 1.000000 0.000000
vn 0.000000 0.898758 0.438445
vn 0.401545 0.823118 0.401545
vn 0.000000 -0.443615 -0.896218
vn -0.000000 0.000000 -1.000000
vn 0.463475 0.000000 -0.886110
vn 0.424442 -0.401673 -0.811485
vn 0.000000 -0.898758 0.438445
vn 0.000000 -1.000000 0.000000
vn 0.438445 -0.898758 0.000000
vn 0.401546 -0.823118 0.401545
vn -0.823011 -0.390109 -0.412878
vn -0.903627 -0.428321 0.000000
vn -1.000000 0.000000 -0.000000
vn -0.893830 0.000000 -0.448406
vn -0.401545 -0.823118 -0.401545
vn 0.000000 -0.898758 -0.438445
vn 0.000000 -1.000000 0.000000
vn -0.438445 -0.898758 0.000000
vn 0.438445 -0.898758 0.000000
vn 0.000000 -1.000000 0.000000
vn 0.000000 -0.898758 -0.438445
vn 0.401545 -0.823118 -0.401545
vn 0.893830 0.000000 -0.448406
vn 1.000000 0.000000 0.000000
vn 0.903627 -0.428321 0.000000
vn 0.823011 -0.390109 -0.412878
vn 0.000000 0.898758 -0.438445
vn 0.000000 1.000000 0.000000
vn 0.438445 0.898758 0.000000
vn 0.401546 0.823118 -0.401545
vn -0.438445 0.898758 0.000000
vn 0.000000 1.000000 0.000000
vn 0.000000 0.898758 -0.438445
vn -0.401545 0.823118 -0.401545
vn -0.903627 0.428321 -0.000000
vn -1.000000 0.000000 -0.000000
vn -0.893830 0.000000 0.448406
vn -0.823011 0.390109 0.412878
vn -0.893830 0.000000 -0.448406
vn -1.000000 0.000000 -0.000000
vn -0.903627 0.428321 -0.000000
vn -0.823011 0.390109 -0.412878
vn -0.424442 0.401673 -0.811485
vn 0.000000 0.443615 -0.896218
vn -0.000000 0.000000 -1.000000
vn -0.463475 0.000000 -0.886110
vn 0.463475 0.000000 -0.886110
vn -0.000000 0.000000 -1.000000
vn 0.000000 0.443615 -0.896218
vn 0.424442 0.401673 -0.811485
vn 0.903627 0.428321 0.000000
vn 1.000000 0.000000 0.000000
vn 0.893830 0.000000 -0.448406
vn 0.823011 0.390109 -0.412878
vn 0.893830 0.000000 0.448406
vn 1.000000 0.000000 0.000000
vn 0.903627 0.428321 0.000000
vn 0.823011 0.390109 0.412878
vn 0.000000 0.443615 0.896218
vn 0.000000 0.000000 1.000000
vn 0.463475 0.000000 0.886110
vn 0.424442 0.401673 0.811485
vn -0.463475 0.000000 0.886110
vn 0.000000 0.000000 1.000000
vn 0.000000 0.443615 0.896218
vn -0.424442 0.401673 0.811485
s off
g Deltoid_icositetrahedron__trapezohedron_:pCube8
usemtl lambert42SG
f 1/1/1 9/2/2 26/3/3 19/4/4
f 3/5/5 10/6/6 18/7/7 13/8/8
f 21/9/9 22/10/10 12/11/11 7/12/12
f 14/13/13 15/14/14 9/15/15 1/16/16
f 2/17/17 16/18/18 24/19/19 25/20/20
f 19/4/21 20/21/22 14/22/23 1/1/24
f 25/20/25 26/3/26 9/2/27 2/17/28
f 17/23/29 18/7/30 10/6/31 4/24/32
f 12/11/33 22/10/34 23/25/35 8/26/36
f 9/15/37 15/14/38 16/27/39 2/28/40
f 7/29/41 14/22/42 20/21/43 21/30/44
f 7/12/45 12/11/46 15/14/47 14/13/48
f 16/27/49 15/14/50 12/11/51 8/26/52
f 23/31/53 24/19/54 16/18/55 8/32/56
f 11/33/57 18/7/58 17/23/59 6/34/60
f 13/8/61 18/7/62 11/33/63 5/35/64
f 13/36/65 20/21/66 19/4/67 3/5/68
f 21/30/69 20/21/70 13/36/71 5/37/72
f 5/35/73 11/33/74 22/10/75 21/9/76
f 23/25/77 22/10/78 11/33/79 6/34/80
f 17/38/81 24/19/82 23/31/83 6/39/84
f 25/20/85 24/19/86 17/38/87 4/24/88
f 10/6/89 26/3/90 25/20/91 4/24/92
f 19/4/93 26/3/94 10/6/95 3/5/96
