# This file uses centimeters as units for non-parametric coordinates.

mtllib Dihexagonal dipyramid.mtl
g default
v 0.767721 0.000000 -0.443244
v 0.443244 0.000000 -0.767721
v 0.000000 0.000000 -0.886487
v -0.443244 0.000000 -0.767721
v -0.767721 0.000000 -0.443244
v -0.886487 0.000000 0.000000
v -0.767721 0.000000 0.443244
v -0.443244 0.000000 0.767721
v 0.000000 0.000000 0.886487
v 0.443244 0.000000 0.767721
v 0.767721 0.000000 0.443244
v 0.886487 0.000000 0.000000
v 0.000000 1.772975 0.000000
v 0.000000 -1.772975 0.000000
vt 0.250000 0.500000
vt 0.291667 0.500000
vt 0.500000 1.000000
vt 0.333333 0.500000
vt 0.375000 0.500000
vt 0.416667 0.500000
vt 0.458333 0.500000
vt 0.500000 0.500000
vt 0.541667 0.500000
vt 0.583333 0.500000
vt 0.625000 0.500000
vt 0.666667 0.500000
vt 0.708333 0.500000
vt 0.750000 0.500000
vt 0.250000 0.500000
vt 0.500000 1.000000
vt 0.291667 0.500000
vt 0.333333 0.500000
vt 0.375000 0.500000
vt 0.416667 0.500000
vt 0.458333 0.500000
vt 0.500000 0.500000
vt 0.541667 0.500000
vt 0.583333 0.500000
vt 0.625000 0.500000
vt 0.666667 0.500000
vt 0.708333 0.500000
vt 0.750000 0.500000
vn 0.636735 0.434898 -0.636735
vn 0.636735 0.434898 -0.636735
vn 0.636735 0.434898 -0.636735
vn 0.233061 0.434898 -0.869797
vn 0.233061 0.434898 -0.869797
vn 0.233061 0.434898 -0.869797
vn -0.233061 0.434898 -0.869797
vn -0.233061 0.434898 -0.869797
vn -0.233061 0.434898 -0.869797
vn -0.636735 0.434898 -0.636735
vn -0.636735 0.434898 -0.636735
vn -0.636735 0.434898 -0.636735
vn -0.869797 0.434898 -0.233061
vn -0.869797 0.434898 -0.233061
vn -0.869797 0.434898 -0.233061
vn -0.869797 0.434898 0.233061
vn -0.869797 0.434898 0.233061
vn -0.869797 0.434898 0.233061
vn -0.636735 0.434898 0.636735
vn -0.636735 0.434898 0.636735
vn -0.636735 0.434898 0.636735
vn -0.233061 0.434898 0.869797
vn -0.233061 0.434898 0.869797
vn -0.233061 0.434898 0.869797
vn 0.233061 0.434898 0.869797
vn 0.233061 0.434898 0.869797
vn 0.233061 0.434898 0.869797
vn 0.636735 0.434898 0.636735
vn 0.636735 0.434898 0.636735
vn 0.636735 0.434898 0.636735
vn 0.869797 0.434898 0.233061
vn 0.869797 0.434898 0.233061
vn 0.869797 0.434898 0.233061
vn 0.869797 0.434898 -0.233061
vn 0.869797 0.434898 -0.233061
vn 0.869797 0.434898 -0.233061
vn 0.636735 -0.434898 -0.636735
vn 0.636735 -0.434898 -0.636735
vn 0.636735 -0.434898 -0.636735
vn 0.233061 -0.434898 -0.869797
vn 0.233061 -0.434898 -0.869797
vn 0.233061 -0.434898 -0.869797
vn -0.233061 -0.434898 -0.869797
vn -0.233061 -0.434898 -0.869797
vn -0.233061 -0.434898 -0.869797
vn -0.636735 -0.434898 -0.636735
vn -0.636735 -0.434898 -0.636735
vn -0.636735 -0.434898 -0.636735
vn -0.869797 -0.434898 -0.233061
vn -0.869797 -0.434898 -0.233061
vn -0.869797 -0.434898 -0.233061
vn -0.869797 -0.434898 0.233061
vn -0.869797 -0.434898 0.233061
vn -0.869797 -0.434898 0.233061
vn -0.636735 -0.434898 0.636735
vn -0.636735 -0.434898 0.636735
vn -0.636735 -0.434898 0.636735
vn -0.233061 -0.434898 0.869797
vn -0.233061 -0.434898 0.869797
vn -0.233061 -0.434898 0.869797
vn 0.233061 -0.434898 0.869797
vn 0.233061 -0.434898 0.869797
vn 0.233061 -0.434898 0.869797
vn 0.636735 -0.434898 0.636735
vn 0.636735 -0.434898 0.636735
vn 0.636735 -0.434898 0.636735
vn 0.869797 -0.434898 0.233061
vn 0.869797 -0.434898 0.233061
vn 0.869797 -0.434898 0.233061
vn 0.869797 -0.434898 -0.233061
vn 0.869797 -0.434898 -0.233061
vn 0.869797 -0.434898 -0.233061
s off
g Dihexagonal_dipyramid:pCone3
usemtl lambert44SG
f 1/1/1 2/2/2 13/3/3
f 2/2/4 3/4/5 13/3/6
f 3/4/7 4/5/8 13/3/9
f 4/5/10 5/6/11 13/3/12
f 5/6/13 6/7/14 13/3/15
f 6/7/16 7/8/17 13/3/18
f 7/8/19 8/9/20 13/3/21
f 8/9/22 9/10/23 13/3/24
f 9/10/25 10/11/26 13/3/27
f 10/11/28 11/12/29 13/3/30
f 11/12/31 12/13/32 13/3/33
f 12/13/34 1/14/35 13/3/36
f 1/15/37 14/16/38 2/17/39
f 2/17/40 14/16/41 3/18/42
f 3/18/43 14/16/44 4/19/45
f 4/19/46 14/16/47 5/20/48
f 5/20/49 14/16/50 6/21/51
f 6/21/52 14/16/53 7/22/54
f 7/22/55 14/16/56 8/23/57
f 8/23/58 14/16/59 9/24/60
f 9/24/61 14/16/62 10/25/63
f 10/25/64 14/16/65 11/26/66
f 11/26/67 14/16/68 12/27/69
f 12/27/70 14/16/71 1/28/72
