# This file uses centimeters as units for non-parametric coordinates.

mtllib Pentagon-trioctahedron (gyroid).mtl
g default
v 0.000055 0.000000 -1.551617
v -0.668983 -0.220072 -1.189394
v -1.133250 0.221570 -0.703088
v -0.750762 0.753181 -0.769666
v -0.224774 0.675427 -1.154463
v -1.534406 0.000000 -0.020888
v -1.140017 0.691517 0.197320
v -0.679589 1.131973 -0.244123
v 0.759478 0.753182 0.748431
v 1.144523 0.224567 0.695400
v 1.534464 0.000000 0.016044
v 1.143744 0.691517 -0.207338
v 0.684002 1.131973 0.228853
v 0.000054 0.000000 1.542576
v 0.665982 -0.226065 1.179274
v 0.226578 0.678648 1.146503
v -0.787617 0.753181 0.761389
v -0.671643 0.226065 1.162905
v -0.223436 1.131973 0.681424
v 0.795803 0.753182 -0.760575
v 0.679713 0.220072 -1.172950
v 0.234881 1.131973 -0.675957
v -1.160926 -0.224567 0.667655
v 1.149842 -0.221570 -0.675612
v 0.000000 1.514137 0.000000
v 0.769066 -0.753181 -0.751375
v 0.215495 -0.691517 -1.149610
v 1.134938 -0.691517 0.224698
v 0.685267 -1.131973 -0.227698
v -0.777269 -0.753182 0.729937
v -1.138423 -0.691517 -0.234802
v -0.689311 -1.131973 0.212325
v -0.228367 -0.691520 1.141338
v 0.769066 -0.753181 0.780123
v 0.206973 -1.131973 0.686603
v -0.777269 -0.753182 -0.779506
v -0.218545 -1.131973 -0.681414
v 0.000000 -1.514137 0.000000
vt 0.577254 0.012236
vt 0.297746 0.103054
vt 0.297746 0.396946
vt 0.577254 0.487764
vt 0.750000 0.250000
vt 0.577254 0.012236
vt 0.297746 0.103054
vt 0.297746 0.396946
vt 0.577254 0.487764
vt 0.750000 0.250000
vt 0.577254 0.012236
vt 0.297746 0.103054
vt 0.297746 0.396946
vt 0.577254 0.487764
vt 0.750000 0.250000
vt 0.577254 0.012236
vt 0.297746 0.103054
vt 0.297746 0.396946
vt 0.577254 0.487764
vt 0.750000 0.250000
vt 0.577254 0.012236
vt 0.297746 0.103054
vt 0.297746 0.396946
vt 0.577254 0.487764
vt 0.750000 0.250000
vt 0.577254 0.012236
vt 0.297746 0.103054
vt 0.297746 0.396946
vt 0.577254 0.487764
vt 0.750000 0.250000
vt 0.577254 0.012236
vt 0.297746 0.103054
vt 0.297746 0.396946
vt 0.577254 0.487764
vt 0.750000 0.250000
vt 0.577254 0.012236
vt 0.297746 0.103054
vt 0.297746 0.396946
vt 0.577254 0.487764
vt 0.750000 0.250000
vt 0.577254 0.012236
vt 0.297746 0.103054
vt 0.297746 0.396946
vt 0.577254 0.487764
vt 0.750000 0.250000
vt 0.577254 0.012236
vt 0.297746 0.103054
vt 0.297746 0.396946
vt 0.577254 0.487764
vt 0.750000 0.250000
vt 0.577254 0.012236
vt 0.297746 0.103054
vt 0.297746 0.396946
vt 0.577254 0.487764
vt 0.750000 0.250000
vt 0.577254 0.012236
vt 0.297746 0.103054
vt 0.297746 0.396946
vt 0.577254 0.487764
vt 0.750000 0.250000
vt 0.577254 0.012236
vt 0.297746 0.103054
vt 0.297746 0.396946
vt 0.577254 0.487764
vt 0.750000 0.250000
vt 0.577254 0.012236
vt 0.297746 0.103054
vt 0.297746 0.396946
vt 0.577254 0.487764
vt 0.750000 0.250000
vt 0.577254 0.012236
vt 0.297746 0.103054
vt 0.297746 0.396946
vt 0.577254 0.487764
vt 0.750000 0.250000
vt 0.577254 0.012236
vt 0.297746 0.103054
vt 0.297746 0.396946
vt 0.577254 0.487764
vt 0.750000 0.250000
vt 0.577254 0.012236
vt 0.297746 0.103054
vt 0.297746 0.396946
vt 0.577254 0.487764
vt 0.750000 0.250000
vt 0.577254 0.012236
vt 0.297746 0.103054
vt 0.297746 0.396946
vt 0.577254 0.487764
vt 0.750000 0.250000
vt 0.577254 0.012236
vt 0.297746 0.103054
vt 0.297746 0.396946
vt 0.577254 0.487764
vt 0.750000 0.250000
vt 0.577254 0.012236
vt 0.297746 0.103054
vt 0.297746 0.396946
vt 0.577254 0.487764
vt 0.750000 0.250000
vt 0.577254 0.012236
vt 0.297746 0.103054
vt 0.297746 0.396946
vt 0.577254 0.487764
vt 0.750000 0.250000
vt 0.577254 0.012236
vt 0.297746 0.103054
vt 0.297746 0.396946
vt 0.577254 0.487764
vt 0.750000 0.250000
vt 0.577254 0.012236
vt 0.297746 0.103054
vt 0.297746 0.396946
vt 0.577254 0.487764
vt 0.750000 0.250000
vt 0.577254 0.012236
vt 0.297746 0.103054
vt 0.297746 0.396946
vt 0.577254 0.487764
vt 0.750000 0.250000
vn -0.535306 0.294225 -0.791757
vn -0.535306 0.294225 -0.791757
vn -0.535306 0.294225 -0.791757
vn -0.535306 0.294225 -0.791757
vn -0.535306 0.294225 -0.791757
vn -0.791730 0.539693 -0.286174
vn -0.791730 0.539693 -0.286174
vn -0.791730 0.539693 -0.286174
vn -0.791730 0.539693 -0.286174
vn -0.791730 0.539693 -0.286174
vn 0.791320 0.543183 0.280650
vn 0.791320 0.543183 0.280650
vn 0.791320 0.543183 0.280650
vn 0.791320 0.543183 0.280650
vn 0.791320 0.543183 0.280650
vn 0.534247 0.293487 0.792745
vn 0.534247 0.293487 0.792745
vn 0.534247 0.293487 0.792745
vn 0.534247 0.293487 0.792745
vn 0.534247 0.293487 0.792745
vn -0.261425 0.550420 0.792903
vn -0.261425 0.550420 0.792903
vn -0.261425 0.550420 0.792903
vn -0.261425 0.550420 0.792903
vn -0.261425 0.550420 0.792903
vn 0.261798 0.555560 -0.789186
vn 0.261798 0.555560 -0.789186
vn 0.261798 0.555560 -0.789186
vn 0.261798 0.555560 -0.789186
vn 0.261798 0.555560 -0.789186
vn -0.808318 0.270683 0.522831
vn -0.808318 0.270683 0.522831
vn -0.808318 0.270683 0.522831
vn -0.808318 0.270683 0.522831
vn -0.808318 0.270683 0.522831
vn 0.811450 0.261740 -0.522533
vn 0.811450 0.261740 -0.522533
vn 0.811450 0.261740 -0.522533
vn 0.811450 0.261740 -0.522533
vn 0.811450 0.261740 -0.522533
vn -0.257738 0.803766 -0.536220
vn -0.257738 0.803766 -0.536220
vn -0.257738 0.803766 -0.536219
vn -0.257738 0.803766 -0.536220
vn -0.257738 0.803766 -0.536220
vn -0.530705 0.807761 0.256662
vn -0.530705 0.807761 0.256662
vn -0.530705 0.807761 0.256662
vn -0.530705 0.807761 0.256662
vn -0.530705 0.807761 0.256662
vn 0.270871 0.801182 0.533607
vn 0.270871 0.801182 0.533607
vn 0.270871 0.801182 0.533607
vn 0.270871 0.801182 0.533607
vn 0.270871 0.801182 0.533607
vn 0.528609 0.808961 -0.257204
vn 0.528609 0.808961 -0.257204
vn 0.528609 0.808961 -0.257204
vn 0.528609 0.808961 -0.257204
vn 0.528609 0.808961 -0.257204
vn 0.541919 -0.291520 -0.788251
vn 0.541919 -0.291520 -0.788251
vn 0.541919 -0.291520 -0.788251
vn 0.541919 -0.291520 -0.788251
vn 0.541919 -0.291520 -0.788251
vn 0.798388 -0.539693 -0.267038
vn 0.798388 -0.539693 -0.267038
vn 0.798388 -0.539693 -0.267038
vn 0.798388 -0.539693 -0.267038
vn 0.798388 -0.539693 -0.267038
vn -0.797845 -0.543183 0.261525
vn -0.797845 -0.543183 0.261525
vn -0.797845 -0.543183 0.261525
vn -0.797845 -0.543183 0.261525
vn -0.797845 -0.543183 0.261525
vn -0.543804 -0.286242 0.788887
vn -0.543804 -0.286242 0.788887
vn -0.543804 -0.286242 0.788887
vn -0.543804 -0.286242 0.788887
vn -0.543804 -0.286242 0.788887
vn 0.251424 -0.553775 0.793801
vn 0.251424 -0.553775 0.793801
vn 0.251424 -0.553775 0.793801
vn 0.251424 -0.553775 0.793801
vn 0.251424 -0.553775 0.793801
vn -0.256250 -0.557180 -0.789865
vn -0.256250 -0.557180 -0.789865
vn -0.256250 -0.557180 -0.789865
vn -0.256250 -0.557180 -0.789865
vn -0.256250 -0.557180 -0.789865
vn 0.800423 -0.273395 0.533458
vn 0.800423 -0.273395 0.533459
vn 0.800423 -0.273395 0.533459
vn 0.800423 -0.273395 0.533458
vn 0.800423 -0.273395 0.533459
vn -0.802557 -0.263763 -0.535099
vn -0.802557 -0.263763 -0.535099
vn -0.802557 -0.263763 -0.535099
vn -0.802557 -0.263763 -0.535099
vn -0.802557 -0.263763 -0.535099
vn 0.271047 -0.804706 -0.528187
vn 0.271047 -0.804706 -0.528187
vn 0.271047 -0.804706 -0.528187
vn 0.271047 -0.804706 -0.528187
vn 0.271047 -0.804706 -0.528187
vn 0.524374 -0.807761 0.269359
vn 0.524374 -0.807761 0.269359
vn 0.524374 -0.807761 0.269359
vn 0.524374 -0.807761 0.269359
vn 0.524374 -0.807761 0.269359
vn -0.284060 -0.802103 0.525300
vn -0.284060 -0.802103 0.525300
vn -0.284060 -0.802103 0.525300
vn -0.284060 -0.802103 0.525300
vn -0.284060 -0.802103 0.525300
vn -0.522267 -0.808961 -0.269851
vn -0.522267 -0.808961 -0.269851
vn -0.522267 -0.808961 -0.269851
vn -0.522267 -0.808961 -0.269851
vn -0.522267 -0.808961 -0.269851
s off
g Pentagon_trioctahedron__gyroid_:pCone16
usemtl lambert46SG
f 1/1/1 2/2/2 3/3/3 4/4/4 5/5/5
f 4/6/6 3/7/7 6/8/8 7/9/9 8/10/10
f 9/11/11 10/12/12 11/13/13 12/14/14 13/15/15
f 14/16/16 15/17/17 10/18/18 9/19/19 16/20/20
f 17/21/21 18/22/22 14/23/23 16/24/24 19/25/25
f 20/26/26 21/27/27 1/28/28 5/29/29 22/30/30
f 6/31/31 23/32/32 18/33/33 17/34/34 7/35/35
f 11/36/36 24/37/37 21/38/38 20/39/39 12/40/40
f 22/41/41 5/42/42 4/43/43 8/44/44 25/45/45
f 8/46/46 7/47/47 17/48/48 19/49/49 25/50/50
f 19/51/51 16/52/52 9/53/53 13/54/54 25/55/55
f 13/56/56 12/57/57 20/58/58 22/59/59 25/60/60
f 1/61/61 21/62/62 24/63/63 26/64/64 27/65/65
f 26/66/66 24/67/67 11/68/68 28/69/69 29/70/70
f 30/71/71 23/72/72 6/73/73 31/74/74 32/75/75
f 14/76/76 18/77/77 23/78/78 30/79/79 33/80/80
f 34/81/81 15/82/82 14/83/83 33/84/84 35/85/85
f 36/86/86 2/87/87 1/88/88 27/89/89 37/90/90
f 11/91/91 10/92/92 15/93/93 34/94/94 28/95/95
f 6/96/96 3/97/97 2/98/98 36/99/99 31/100/100
f 37/101/101 27/102/102 26/103/103 29/104/104 38/105/105
f 29/106/106 28/107/107 34/108/108 35/109/109 38/110/110
f 35/111/111 33/112/112 30/113/113 32/114/114 38/115/115
f 32/116/116 31/117/117 36/118/118 37/119/119 38/120/120
