# This file uses centimeters as units for non-parametric coordinates.

mtllib Pinacoid.mtl
g default
v -0.276034 -1.034441 0.276034
v 0.276034 -1.034441 0.276034
v 0.276034 -1.034441 -0.276034
v -0.276034 -1.034441 -0.276034
v -0.276034 1.034441 0.276034
v 0.276034 1.034441 0.276034
v 0.276034 1.034441 -0.276034
v -0.276034 1.034441 -0.276034
vt 0.375000 0.250000
vt 0.375000 0.500000
vt 0.625000 0.500000
vt 0.625000 0.250000
vt 0.375000 0.250000
vt 0.625000 0.250000
vt 0.625000 0.500000
vt 0.375000 0.500000
vn 0.000000 -1.000000 0.000000
vn 0.000000 -1.000000 0.000000
vn 0.000000 -1.000000 0.000000
vn 0.000000 -1.000000 0.000000
vn 0.000000 1.000000 0.000000
vn 0.000000 1.000000 0.000000
vn 0.000000 1.000000 0.000000
vn 0.000000 1.000000 0.000000
s off
g Pinacoid:pCube6
usemtl lambert3SG
f 1/1/1 4/2/2 3/3/3 2/4/4
f 5/5/5 6/6/6 7/7/7 8/8/8
