# This file uses centimeters as units for non-parametric coordinates.

mtllib Sphenoid.mtl
g default
v -0.572792 1.058056 0.802346
v 0.507996 0.000000 0.802346
v -0.586657 -1.057940 0.802346
v 0.507996 0.000000 -0.802346
v -0.586657 -1.057940 -0.802346
v -0.572792 1.058056 -0.802346
vt 0.375000 0.250000
vt 0.625000 0.250000
vt 0.625000 0.500000
vt 0.375000 0.500000
vt 0.125000 0.000000
vt 0.375000 0.000000
vt 0.125000 0.250000
vn 0.694946 -0.719062 0.000000
vn 0.694946 -0.719062 0.000000
vn 0.694946 -0.719062 0.000000
vn 0.694946 -0.719062 0.000000
vn 0.699552 0.714582 0.000000
vn 0.699552 0.714582 0.000000
vn 0.699552 0.714582 0.000000
vn 0.699552 0.714582 0.000000
s off
g Sphenoid:pCube1
usemtl lambert5SG
f 2/1/1 3/2/2 5/3/3 4/4/4
f 6/5/5 1/6/6 2/1/7 4/7/8
