# This file uses centimeters as units for non-parametric coordinates.

mtllib Ditetragonal dipyramid.mtl
g default
v 0.707107 0.000000 -0.707107
v 0.000000 0.000000 -1.000000
v -0.707107 0.000000 -0.707107
v -1.000000 0.000000 0.000000
v -0.707107 0.000000 0.707107
v 0.000000 0.000000 1.000000
v 0.707107 0.000000 0.707107
v 1.000000 0.000000 0.000000
v 0.000000 -1.555556 0.000000
v 0.000000 1.555556 0.000000
vt 0.250000 0.500000
vt 0.500000 1.000000
vt 0.312500 0.500000
vt 0.375000 0.500000
vt 0.437500 0.500000
vt 0.500000 0.500000
vt 0.562500 0.500000
vt 0.625000 0.500000
vt 0.687500 0.500000
vt 0.750000 0.500000
vt 0.250000 0.500000
vt 0.312500 0.500000
vt 0.500000 1.000000
vt 0.375000 0.500000
vt 0.437500 0.500000
vt 0.500000 0.500000
vt 0.562500 0.500000
vt 0.625000 0.500000
vt 0.687500 0.500000
vt 0.750000 0.500000
vn 0.329027 -0.510648 -0.794342
vn 0.329027 -0.510648 -0.794342
vn 0.329027 -0.510648 -0.794342
vn -0.329027 -0.510648 -0.794342
vn -0.329027 -0.510648 -0.794342
vn -0.329027 -0.510648 -0.794342
vn -0.794342 -0.510648 -0.329027
vn -0.794342 -0.510648 -0.329027
vn -0.794342 -0.510648 -0.329027
vn -0.794342 -0.510648 0.329027
vn -0.794342 -0.510648 0.329027
vn -0.794342 -0.510648 0.329027
vn -0.329027 -0.510648 0.794342
vn -0.329027 -0.510648 0.794342
vn -0.329027 -0.510648 0.794342
vn 0.329027 -0.510648 0.794342
vn 0.329027 -0.510648 0.794342
vn 0.329027 -0.510648 0.794342
vn 0.794342 -0.510648 0.329027
vn 0.794342 -0.510648 0.329027
vn 0.794342 -0.510648 0.329027
vn 0.794342 -0.510648 -0.329027
vn 0.794342 -0.510648 -0.329027
vn 0.794342 -0.510648 -0.329027
vn 0.329027 0.510648 -0.794342
vn 0.329027 0.510648 -0.794342
vn 0.329027 0.510648 -0.794342
vn -0.329027 0.510648 -0.794342
vn -0.329027 0.510648 -0.794342
vn -0.329027 0.510648 -0.794342
vn -0.794342 0.510648 -0.329027
vn -0.794342 0.510648 -0.329027
vn -0.794342 0.510648 -0.329027
vn -0.794342 0.510648 0.329027
vn -0.794342 0.510648 0.329027
vn -0.794342 0.510648 0.329027
vn -0.329027 0.510648 0.794342
vn -0.329027 0.510648 0.794342
vn -0.329027 0.510648 0.794342
vn 0.329027 0.510648 0.794342
vn 0.329027 0.510648 0.794342
vn 0.329027 0.510648 0.794342
vn 0.794342 0.510648 0.329027
vn 0.794342 0.510648 0.329027
vn 0.794342 0.510648 0.329027
vn 0.794342 0.510648 -0.329027
vn 0.794342 0.510648 -0.329027
vn 0.794342 0.510648 -0.329027
s off
g Ditetragonal_dipyramid:pCone3
usemtl lambert41SG
f 1/1/1 9/2/2 2/3/3
f 2/3/4 9/2/5 3/4/6
f 3/4/7 9/2/8 4/5/9
f 4/5/10 9/2/11 5/6/12
f 5/6/13 9/2/14 6/7/15
f 6/7/16 9/2/17 7/8/18
f 7/8/19 9/2/20 8/9/21
f 8/9/22 9/2/23 1/10/24
f 1/11/25 2/12/26 10/13/27
f 2/12/28 3/14/29 10/13/30
f 3/14/31 4/15/32 10/13/33
f 4/15/34 5/16/35 10/13/36
f 5/16/37 6/17/38 10/13/39
f 6/17/40 7/18/41 10/13/42
f 7/18/43 8/19/44 10/13/45
f 8/19/46 1/20/47 10/13/48
