# This file uses centimeters as units for non-parametric coordinates.

mtllib Dihexagonal prism.mtl
g default
v 0.977602 -1.371329 -0.564419
v 0.564419 -1.371329 -0.977602
v 0.000000 -1.371329 -1.128838
v -0.564419 -1.371329 -0.977602
v -0.977602 -1.371329 -0.564419
v -1.128838 -1.371329 0.000000
v -0.977602 -1.371329 0.564419
v -0.564419 -1.371329 0.977602
v 0.000000 -1.371329 1.128838
v 0.564419 -1.371329 0.977602
v 0.977602 -1.371329 0.564419
v 1.128838 -1.371329 0.000000
v 0.977602 1.371329 -0.564419
v 0.564419 1.371329 -0.977602
v 0.000000 1.371329 -1.128838
v -0.564419 1.371329 -0.977602
v -0.977602 1.371329 -0.564419
v -1.128838 1.371329 0.000000
v -0.977602 1.371329 0.564419
v -0.564419 1.371329 0.977602
v 0.000000 1.371329 1.128838
v 0.564419 1.371329 0.977602
v 0.977602 1.371329 0.564419
v 1.128838 1.371329 0.000000
vt 0.375000 0.312500
vt 0.395833 0.312500
vt 0.395833 0.687500
vt 0.375000 0.687500
vt 0.416667 0.312500
vt 0.416667 0.687500
vt 0.437500 0.312500
vt 0.437500 0.687500
vt 0.458333 0.312500
vt 0.458333 0.687500
vt 0.479167 0.312500
vt 0.479167 0.687500
vt 0.500000 0.312500
vt 0.500000 0.687500
vt 0.520833 0.312500
vt 0.520833 0.687500
vt 0.541667 0.312500
vt 0.541667 0.687500
vt 0.562500 0.312500
vt 0.562500 0.687500
vt 0.583333 0.312500
vt 0.583333 0.687500
vt 0.604167 0.312500
vt 0.604167 0.687500
vt 0.625000 0.312500
vt 0.625000 0.687500
vn 0.707107 0.000000 -0.707107
vn 0.707107 0.000000 -0.707107
vn 0.707107 0.000000 -0.707107
vn 0.707107 0.000000 -0.707107
vn 0.258819 0.000000 -0.965926
vn 0.258819 0.000000 -0.965926
vn 0.258819 0.000000 -0.965926
vn 0.258819 0.000000 -0.965926
vn -0.258819 0.000000 -0.965926
vn -0.258819 0.000000 -0.965926
vn -0.258819 0.000000 -0.965926
vn -0.258819 0.000000 -0.965926
vn -0.707107 0.000000 -0.707107
vn -0.707107 0.000000 -0.707107
vn -0.707107 0.000000 -0.707107
vn -0.707107 0.000000 -0.707107
vn -0.965926 0.000000 -0.258819
vn -0.965926 0.000000 -0.258819
vn -0.965926 0.000000 -0.258819
vn -0.965926 0.000000 -0.258819
vn -0.965926 0.000000 0.258819
vn -0.965926 0.000000 0.258819
vn -0.965926 0.000000 0.258819
vn -0.965926 0.000000 0.258819
vn -0.707107 0.000000 0.707107
vn -0.707107 0.000000 0.707107
vn -0.707107 0.000000 0.707107
vn -0.707107 0.000000 0.707107
vn -0.258819 0.000000 0.965926
vn -0.258819 0.000000 0.965926
vn -0.258819 0.000000 0.965926
vn -0.258819 0.000000 0.965926
vn 0.258819 0.000000 0.965926
vn 0.258819 0.000000 0.965926
vn 0.258819 0.000000 0.965926
vn 0.258819 0.000000 0.965926
vn 0.707107 0.000000 0.707107
vn 0.707107 0.000000 0.707107
vn 0.707107 0.000000 0.707107
vn 0.707107 0.000000 0.707107
vn 0.965926 0.000000 0.258819
vn 0.965926 0.000000 0.258819
vn 0.965926 0.000000 0.258819
vn 0.965926 0.000000 0.258819
vn 0.965926 0.000000 -0.258819
vn 0.965926 0.000000 -0.258819
vn 0.965926 0.000000 -0.258819
vn 0.965926 0.000000 -0.258819
s off
g Dihexagonal_prism:pCylinder1
usemtl lambert30SG
f 1/1/1 2/2/2 14/3/3 13/4/4
f 2/2/5 3/5/6 15/6/7 14/3/8
f 3/5/9 4/7/10 16/8/11 15/6/12
f 4/7/13 5/9/14 17/10/15 16/8/16
f 5/9/17 6/11/18 18/12/19 17/10/20
f 6/11/21 7/13/22 19/14/23 18/12/24
f 7/13/25 8/15/26 20/16/27 19/14/28
f 8/15/29 9/17/30 21/18/31 20/16/32
f 9/17/33 10/19/34 22/20/35 21/18/36
f 10/19/37 11/21/38 23/22/39 22/20/40
f 11/21/41 12/23/42 24/24/43 23/22/44
f 12/23/45 1/25/46 13/26/47 24/24/48
