# This file uses centimeters as units for non-parametric coordinates.

mtllib Dihexagonal pyramid.mtl
g default
v 1.047850 -0.326422 -0.604976
v 0.604976 -0.326422 -1.047850
v 0.000000 -0.326422 -1.209953
v -0.604976 -0.326422 -1.047850
v -1.047850 -0.326422 -0.604976
v -1.209953 -0.326422 0.000000
v -1.047850 -0.326422 0.604976
v -0.604976 -0.326422 1.047850
v 0.000000 -0.326422 1.209953
v 0.604976 -0.326422 1.047850
v 1.047850 -0.326422 0.604976
v 1.209953 -0.326422 0.000000
v 0.000000 1.778895 0.000000
vt 0.250000 0.500000
vt 0.291667 0.500000
vt 0.500000 1.000000
vt 0.333333 0.500000
vt 0.375000 0.500000
vt 0.416667 0.500000
vt 0.458333 0.500000
vt 0.500000 0.500000
vt 0.541667 0.500000
vt 0.583333 0.500000
vt 0.625000 0.500000
vt 0.666667 0.500000
vt 0.708333 0.500000
vt 0.750000 0.500000
vn 0.618234 0.485358 -0.618234
vn 0.618234 0.485358 -0.618234
vn 0.618234 0.485358 -0.618234
vn 0.226289 0.485358 -0.844524
vn 0.226289 0.485358 -0.844524
vn 0.226289 0.485358 -0.844524
vn -0.226289 0.485358 -0.844524
vn -0.226289 0.485358 -0.844524
vn -0.226289 0.485358 -0.844524
vn -0.618234 0.485358 -0.618234
vn -0.618234 0.485358 -0.618234
vn -0.618234 0.485358 -0.618234
vn -0.844524 0.485358 -0.226290
vn -0.844524 0.485358 -0.226290
vn -0.844524 0.485358 -0.226289
vn -0.844524 0.485358 0.226290
vn -0.844524 0.485358 0.226290
vn -0.844524 0.485358 0.226289
vn -0.618234 0.485358 0.618234
vn -0.618234 0.485358 0.618234
vn -0.618234 0.485358 0.618234
vn -0.226289 0.485358 0.844524
vn -0.226289 0.485358 0.844524
vn -0.226289 0.485358 0.844524
vn 0.226289 0.485358 0.844524
vn 0.226289 0.485358 0.844524
vn 0.226289 0.485358 0.844524
vn 0.618234 0.485358 0.618234
vn 0.618234 0.485358 0.618234
vn 0.618234 0.485358 0.618234
vn 0.844524 0.485358 0.226290
vn 0.844524 0.485358 0.226290
vn 0.844524 0.485358 0.226289
vn 0.844524 0.485358 -0.226290
vn 0.844524 0.485358 -0.226290
vn 0.844524 0.485358 -0.226289
s off
g Dihexagonal_pyramid:pCone1
usemtl lambert31SG
f 1/1/1 2/2/2 13/3/3
f 2/2/4 3/4/5 13/3/6
f 3/4/7 4/5/8 13/3/9
f 4/5/10 5/6/11 13/3/12
f 5/6/13 6/7/14 13/3/15
f 6/7/16 7/8/17 13/3/18
f 7/8/19 8/9/20 13/3/21
f 8/9/22 9/10/23 13/3/24
f 9/10/25 10/11/26 13/3/27
f 10/11/28 11/12/29 13/3/30
f 11/12/31 12/13/32 13/3/33
f 12/13/34 1/14/35 13/3/36
