# This file uses centimeters as units for non-parametric coordinates.

mtllib Ditrigonal dipyramid.mtl
g default
v 0.000000 -0.004943 -1.341992
v -0.934148 -0.004943 -0.545803
v -1.160308 -0.004943 0.663909
v 0.000000 -0.004943 1.072709
v 1.160307 -0.004943 0.663910
v 0.934148 -0.004943 -0.545803
v 0.000000 -1.737781 0.000000
v 0.000000 1.727895 0.000000
vt 0.250000 0.500000
vt 0.500000 1.000000
vt 0.333333 0.500000
vt 0.416667 0.500000
vt 0.500000 0.500000
vt 0.583333 0.500000
vt 0.666667 0.500000
vt 0.750000 0.500000
vt 0.250000 0.500000
vt 0.333333 0.500000
vt 0.500000 1.000000
vt 0.416667 0.500000
vt 0.500000 0.500000
vt 0.583333 0.500000
vt 0.666667 0.500000
vt 0.750000 0.500000
vn -0.558825 -0.507770 -0.655655
vn -0.558825 -0.507770 -0.655655
vn -0.558825 -0.507770 -0.655655
vn -0.847421 -0.506734 -0.158428
vn -0.847421 -0.506734 -0.158428
vn -0.847421 -0.506733 -0.158428
vn -0.286966 -0.504216 0.814504
vn -0.286966 -0.504216 0.814504
vn -0.286966 -0.504216 0.814504
vn 0.286966 -0.504216 0.814504
vn 0.286966 -0.504216 0.814504
vn 0.286966 -0.504216 0.814504
vn 0.847421 -0.506733 -0.158428
vn 0.847421 -0.506733 -0.158428
vn 0.847421 -0.506733 -0.158428
vn 0.558825 -0.507770 -0.655655
vn 0.558825 -0.507770 -0.655655
vn 0.558825 -0.507770 -0.655655
vn -0.558825 0.507770 -0.655655
vn -0.558825 0.507770 -0.655655
vn -0.558825 0.507770 -0.655655
vn -0.847421 0.506733 -0.158428
vn -0.847421 0.506734 -0.158428
vn -0.847421 0.506734 -0.158428
vn -0.286966 0.504216 0.814504
vn -0.286966 0.504216 0.814504
vn -0.286966 0.504216 0.814504
vn 0.286966 0.504216 0.814504
vn 0.286966 0.504216 0.814504
vn 0.286966 0.504216 0.814504
vn 0.847421 0.506733 -0.158428
vn 0.847421 0.506733 -0.158428
vn 0.847421 0.506733 -0.158428
vn 0.558825 0.507770 -0.655655
vn 0.558825 0.507770 -0.655655
vn 0.558825 0.507770 -0.655655
s off
g Ditrigonal_dipyramid:pCone3
usemtl lambert33SG
f 1/1/1 7/2/2 2/3/3
f 2/3/4 7/2/5 3/4/6
f 3/4/7 7/2/8 4/5/9
f 4/5/10 7/2/11 5/6/12
f 5/6/13 7/2/14 6/7/15
f 6/7/16 7/2/17 1/8/18
f 1/9/19 2/10/20 8/11/21
f 2/10/22 3/12/23 8/11/24
f 3/12/25 4/13/26 8/11/27
f 4/13/28 5/14/29 8/11/30
f 5/14/31 6/15/32 8/11/33
f 6/15/34 1/16/35 8/11/36
