# This file uses centimeters as units for non-parametric coordinates.

mtllib Hexagonal scalenohedron_A.mtl
g default
v 0.006060 0.107719 -0.990060
v 0.006047 0.095676 -0.989684
v -0.006111 0.095587 -0.989591
v -0.006060 0.107719 -0.990060
v 0.011964 -1.164510 -0.000000
v 0.005983 -1.164507 0.010365
v -0.005983 -1.164507 0.010365
v -0.011964 -1.164510 -0.000000
v -0.005983 -1.164507 -0.010366
v 0.005983 -1.164507 -0.010366
v -0.853748 -0.116607 -0.500109
v -0.853988 -0.128770 -0.500274
v -0.860169 -0.128728 -0.489761
v -0.859857 -0.116607 -0.489526
v -0.860202 0.107719 0.489782
v -0.859870 0.095676 0.489605
v -0.853712 0.095588 0.500089
v -0.854143 0.107719 0.500279
v -0.006110 -0.116606 0.989633
v -0.006132 -0.128769 0.989924
v 0.006062 -0.128728 0.990021
v 0.006110 -0.116606 0.989633
v 0.854142 0.107719 0.500279
v 0.853823 0.095676 0.500080
v 0.859821 0.095588 0.489504
v 0.860201 0.107719 0.489782
v 0.859857 -0.116607 -0.489526
v 0.860120 -0.128770 -0.489652
v 0.854107 -0.128728 -0.500262
v 0.853748 -0.116607 -0.500109
v 0.005983 1.157591 -0.010365
v -0.005983 1.157591 -0.010365
v -0.011964 1.157595 0.000000
v -0.005983 1.157591 0.010366
v 0.005983 1.157591 0.010366
v 0.011963 1.157595 0.000000
v 0.007275 0.109610 -0.995133
v -0.007303 0.109620 -0.995125
v -0.007574 1.162591 -0.012539
v 0.007574 1.162591 -0.012539
v 0.007477 0.093890 -0.994629
v 0.857335 -0.114854 -0.503813
v 0.857874 -0.130657 -0.503859
v -0.007543 0.093791 -0.994526
v 0.007061 -1.169507 -0.012813
v -0.007054 -1.169507 -0.012811
v -0.857745 -0.130702 -0.503869
v -0.857307 -0.114839 -0.503839
v 0.014617 -1.169510 0.000296
v 0.865112 -0.130703 -0.491107
v 0.007565 -1.169507 0.012522
v 0.864811 0.093792 0.490732
v 0.857392 0.093891 0.503791
v -0.007567 -1.169507 0.012515
v 0.007294 -0.130657 0.995082
v -0.007368 -0.130702 0.994976
v -0.014622 -1.169510 0.000291
v -0.857271 0.093792 0.503796
v -0.864868 0.093891 0.490840
v -0.865167 -0.130657 -0.491224
v -0.864859 -0.114854 -0.490780
v -0.014641 1.162595 -0.000290
v -0.865203 0.109611 0.491267
v -0.857908 0.109619 0.503887
v -0.007071 1.162591 0.012829
v -0.007562 -0.114838 0.994580
v 0.007525 -0.114853 0.994592
v 0.007071 1.162591 0.012829
v 0.857928 0.109610 0.503868
v 0.865209 0.109620 0.491238
v 0.014641 1.162595 -0.000290
v 0.864867 -0.114839 -0.490742
vt 0.251525 0.503051
vt 0.496045 0.992090
vt 0.748094 0.502645
vt 0.749232 0.500000
vt 0.667620 0.500000
vt 0.252274 0.504547
vt 0.251926 0.502673
vt 0.332380 0.500000
vt 0.502884 0.993079
vt 0.666427 0.502472
vt 0.501730 0.993080
vt 0.500577 0.993079
vt 0.499423 0.993079
vt 0.498270 0.993080
vt 0.333575 0.502500
vt 0.497116 0.993079
vt 0.334286 0.500000
vt 0.334741 0.502472
vt 0.416525 0.502645
vt 0.415899 0.500000
vt 0.498270 0.993080
vt 0.417434 0.500000
vt 0.417701 0.502673
vt 0.499409 0.502500
vt 0.499047 0.500000
vt 0.499423 0.993079
vt 0.500953 0.500000
vt 0.500584 0.502472
vt 0.582309 0.502645
vt 0.582566 0.500000
vt 0.500577 0.993079
vt 0.584101 0.500000
vt 0.583476 0.502673
vt 0.665243 0.502500
vt 0.665714 0.500000
vt 0.666372 0.502652
vt 0.502884 0.993079
vt 0.501730 0.993080
vt 0.497116 0.993079
vt 0.251811 0.502453
vt 0.333628 0.502652
vt 0.334806 0.502652
vt 0.416492 0.502453
vt 0.417660 0.502453
vt 0.499411 0.502652
vt 0.500589 0.502652
vt 0.582340 0.502453
vt 0.583508 0.502453
vt 0.665194 0.502652
vt 0.250623 0.501247
vt 0.250768 0.500000
vt 0.496382 0.992764
vt 0.498888 0.997777
vt 0.496060 0.992121
vt 0.333244 0.500000
vt 0.416875 0.501246
vt 0.499910 0.500000
vt 0.583125 0.501247
vt 0.666578 0.500000
vt 0.496990 0.993980
vt 0.251525 0.503051
vt 0.251811 0.502453
vt 0.497116 0.993079
vt 0.496045 0.992090
vt 0.748094 0.502645
vt 0.749232 0.500000
vt 0.667620 0.500000
vt 0.666427 0.502472
vt 0.251926 0.502673
vt 0.252274 0.504547
vt 0.496060 0.992121
vt 0.497116 0.993079
vt 0.250768 0.500000
vt 0.333575 0.502500
vt 0.332380 0.500000
vt 0.501730 0.993080
vt 0.502884 0.993079
vt 0.665243 0.502500
vt 0.500577 0.993079
vt 0.583476 0.502673
vt 0.582309 0.502645
vt 0.499423 0.993079
vt 0.500584 0.502472
vt 0.499409 0.502500
vt 0.498270 0.993080
vt 0.417701 0.502673
vt 0.416525 0.502645
vt 0.334741 0.502472
vt 0.333628 0.502652
vt 0.334806 0.502652
vt 0.498270 0.993080
vt 0.334286 0.500000
vt 0.415899 0.500000
vt 0.416492 0.502453
vt 0.417660 0.502453
vt 0.499423 0.993079
vt 0.417434 0.500000
vt 0.499047 0.500000
vt 0.499411 0.502652
vt 0.500589 0.502652
vt 0.500577 0.993079
vt 0.500953 0.500000
vt 0.582566 0.500000
vt 0.582340 0.502453
vt 0.583508 0.502453
vt 0.501730 0.993080
vt 0.584101 0.500000
vt 0.665714 0.500000
vt 0.665194 0.502652
vt 0.666372 0.502652
vt 0.502884 0.993079
vt 0.250623 0.501247
vt 0.496382 0.992764
vt 0.498888 0.997777
vt 0.333244 0.500000
vt 0.416875 0.501246
vt 0.499910 0.500000
vt 0.583125 0.501247
vt 0.666578 0.500000
vt 0.496990 0.993980
vt 0.251811 0.502453
vt 0.497116 0.993079
vt 0.496045 0.992090
vt 0.251525 0.503051
vt 0.749232 0.500000
vt 0.667620 0.500000
vt 0.666427 0.502472
vt 0.748094 0.502645
vt 0.252274 0.504547
vt 0.496060 0.992121
vt 0.497116 0.993079
vt 0.251926 0.502673
vt 0.333575 0.502500
vt 0.332380 0.500000
vt 0.250768 0.500000
vt 0.502884 0.993079
vt 0.665243 0.502500
vt 0.501730 0.993080
vt 0.583476 0.502673
vt 0.582309 0.502645
vt 0.500577 0.993079
vt 0.500584 0.502472
vt 0.499409 0.502500
vt 0.499423 0.993079
vt 0.417701 0.502673
vt 0.416525 0.502645
vt 0.498270 0.993080
vt 0.334741 0.502472
vt 0.334806 0.502652
vt 0.498270 0.993080
vt 0.333628 0.502652
vt 0.415899 0.500000
vt 0.334286 0.500000
vt 0.417660 0.502453
vt 0.499423 0.993079
vt 0.416492 0.502453
vt 0.499047 0.500000
vt 0.417434 0.500000
vt 0.500589 0.502652
vt 0.500577 0.993079
vt 0.499411 0.502652
vt 0.582566 0.500000
vt 0.500953 0.500000
vt 0.583508 0.502453
vt 0.501730 0.993080
vt 0.582340 0.502453
vt 0.665714 0.500000
vt 0.584101 0.500000
vt 0.666372 0.502652
vt 0.502884 0.993079
vt 0.665194 0.502652
vn -0.000003 0.682249 -0.731120
vn -0.000003 0.682249 -0.731120
vn -0.000003 0.682249 -0.731120
vn -0.000003 0.682249 -0.731120
vn 0.499958 -0.000854 -0.866049
vn 0.499958 -0.000854 -0.866049
vn 0.499958 -0.000854 -0.866049
vn 0.499958 -0.000854 -0.866049
vn -0.000770 -0.613614 -0.789606
vn -0.000770 -0.613614 -0.789606
vn -0.000770 -0.613614 -0.789606
vn -0.000770 -0.613614 -0.789606
vn -0.491428 -0.005411 -0.870901
vn -0.493707 -0.005249 -0.869613
vn -0.506859 -0.004284 -0.862018
vn -0.504709 -0.004446 -0.863278
vn 0.630139 -0.687061 -0.361764
vn 0.630139 -0.687061 -0.361764
vn 0.630139 -0.687061 -0.361764
vn 0.630139 -0.687061 -0.361764
vn 0.684299 -0.613532 0.394098
vn 0.684299 -0.613532 0.394098
vn 0.684299 -0.613532 0.394098
vn 0.684299 -0.613532 0.394098
vn -0.001729 -0.687138 0.726525
vn -0.001729 -0.687138 0.726525
vn -0.001729 -0.687138 0.726525
vn -0.001729 -0.687138 0.726525
vn -0.683530 -0.613531 0.395431
vn -0.683530 -0.613531 0.395431
vn -0.683530 -0.613531 0.395431
vn -0.683530 -0.613531 0.395431
vn -0.628406 -0.687061 -0.364765
vn -0.628406 -0.687061 -0.364765
vn -0.628406 -0.687061 -0.364765
vn -0.628406 -0.687061 -0.364765
vn -0.686758 0.609283 -0.396406
vn -0.686758 0.609283 -0.396406
vn -0.686758 0.609283 -0.396406
vn -0.686758 0.609283 -0.396406
vn -1.000000 -0.000837 0.000170
vn -1.000000 -0.000837 0.000170
vn -1.000000 -0.000837 0.000170
vn -1.000000 -0.000837 0.000170
vn -0.633251 0.682169 0.365565
vn -0.633251 0.682169 0.365565
vn -0.633251 0.682169 0.365565
vn -0.633251 0.682169 0.365565
vn -0.508715 -0.005388 0.860918
vn -0.506462 -0.005227 0.862247
vn -0.493309 -0.004262 0.869844
vn -0.495476 -0.004423 0.868610
vn 0.000000 0.609365 0.792890
vn 0.000000 0.609365 0.792890
vn 0.000000 0.609365 0.792890
vn 0.000000 0.609365 0.792890
vn 0.500251 -0.000828 0.865880
vn 0.500251 -0.000828 0.865880
vn 0.500251 -0.000828 0.865880
vn 0.500251 -0.000828 0.865880
vn 0.633251 0.682171 0.365563
vn 0.633251 0.682171 0.365563
vn 0.633251 0.682171 0.365563
vn 0.633251 0.682171 0.365563
vn 0.999936 -0.005399 0.009976
vn 0.999959 -0.005238 0.007362
vn 0.999960 -0.004274 -0.007820
vn 0.999976 -0.004435 -0.005328
vn 0.686759 0.609281 -0.396407
vn 0.686759 0.609281 -0.396407
vn 0.686759 0.609281 -0.396407
vn 0.686759 0.609281 -0.396407
vn -0.003665 -0.034907 -0.999384
vn -0.003665 -0.034907 -0.999384
vn 0.000001 -1.000000 0.000003
vn 0.000001 -1.000000 0.000003
vn 0.000001 -1.000000 0.000003
vn 0.000001 -1.000000 0.000003
vn 0.000001 -1.000000 0.000003
vn 0.000001 -1.000000 0.000003
vn -0.863719 0.027913 -0.503201
vn -0.863719 0.027913 -0.503201
vn -0.863706 -0.034871 0.502788
vn -0.863706 -0.034871 0.502788
vn -0.003999 0.027951 0.999601
vn -0.003999 0.027951 0.999601
vn 0.867370 -0.034859 0.496442
vn 0.867370 -0.034859 0.496442
vn 0.867727 0.027913 -0.496257
vn 0.867727 0.027913 -0.496257
vn -0.000000 1.000000 0.000000
vn -0.000000 1.000000 0.000000
vn -0.000000 1.000000 0.000000
vn -0.000000 1.000000 0.000000
vn -0.000000 1.000000 0.000000
vn -0.000000 1.000000 0.000000
vn 0.000000 -0.682249 0.731120
vn 0.000000 -0.682249 0.731120
vn 0.000000 -0.682249 0.731120
vn 0.000000 -0.682249 0.731120
vn -0.499959 0.000853 0.866049
vn -0.499959 0.000853 0.866049
vn -0.499959 0.000853 0.866049
vn -0.499959 0.000853 0.866049
vn 0.000767 0.613614 0.789606
vn 0.000767 0.613614 0.789606
vn 0.000767 0.613614 0.789606
vn 0.000767 0.613614 0.789606
vn 0.492887 0.005308 0.870077
vn 0.503803 0.004514 0.863807
vn 0.505391 0.004395 0.862880
vn 0.494630 0.005184 0.869088
vn -0.630138 0.687061 0.361764
vn -0.630138 0.687061 0.361764
vn -0.630138 0.687061 0.361764
vn -0.630138 0.687061 0.361764
vn -0.684300 0.613532 -0.394097
vn -0.684300 0.613532 -0.394097
vn -0.684300 0.613532 -0.394097
vn -0.684300 0.613532 -0.394097
vn 0.001727 0.687138 -0.726525
vn 0.001727 0.687138 -0.726525
vn 0.001727 0.687138 -0.726525
vn 0.001727 0.687138 -0.726525
vn 0.683530 0.613531 -0.395432
vn 0.683530 0.613531 -0.395432
vn 0.683530 0.613531 -0.395432
vn 0.683530 0.613531 -0.395432
vn 0.628407 0.687060 0.364765
vn 0.628407 0.687060 0.364765
vn 0.628407 0.687060 0.364765
vn 0.628407 0.687060 0.364765
vn 0.686759 -0.609282 0.396406
vn 0.686759 -0.609282 0.396406
vn 0.686759 -0.609282 0.396406
vn 0.686759 -0.609282 0.396406
vn 1.000000 0.000846 -0.000170
vn 1.000000 0.000846 -0.000170
vn 1.000000 0.000846 -0.000170
vn 1.000000 0.000846 -0.000170
vn 0.633253 -0.682171 -0.365561
vn 0.633253 -0.682171 -0.365561
vn 0.633253 -0.682171 -0.365561
vn 0.633253 -0.682171 -0.365561
vn 0.507274 0.005285 -0.861768
vn 0.496388 0.004491 -0.868089
vn 0.494790 0.004373 -0.869001
vn 0.505547 0.005161 -0.862783
vn 0.000000 -0.609365 -0.792890
vn 0.000000 -0.609365 -0.792890
vn 0.000000 -0.609365 -0.792890
vn 0.000000 -0.609365 -0.792890
vn -0.500252 0.000828 -0.865880
vn -0.500252 0.000828 -0.865880
vn -0.500252 0.000828 -0.865880
vn -0.500252 0.000828 -0.865880
vn -0.633252 -0.682170 -0.365563
vn -0.633252 -0.682170 -0.365563
vn -0.633252 -0.682170 -0.365563
vn -0.633252 -0.682170 -0.365563
vn -0.999952 0.005295 -0.008304
vn -0.999981 0.004502 0.004278
vn -0.999972 0.004383 0.006117
vn -0.999967 0.005171 -0.006302
vn -0.686759 -0.609282 0.396406
vn -0.686759 -0.609282 0.396406
vn -0.686759 -0.609282 0.396406
vn -0.686759 -0.609282 0.396406
vn 0.003667 0.034907 0.999384
vn 0.003667 0.034907 0.999384
vn -0.000002 1.000000 -0.000001
vn -0.000002 1.000000 -0.000001
vn -0.000002 1.000000 -0.000001
vn -0.000002 1.000000 -0.000001
vn -0.000002 1.000000 -0.000001
vn -0.000002 1.000000 -0.000001
vn 0.863718 -0.027908 0.503202
vn 0.863718 -0.027908 0.503202
vn 0.863707 0.034873 -0.502786
vn 0.863707 0.034873 -0.502787
vn 0.004007 -0.027951 -0.999601
vn 0.004007 -0.027951 -0.999601
vn -0.867370 0.034861 -0.496442
vn -0.867370 0.034861 -0.496442
vn -0.867726 -0.027911 0.496258
vn -0.867726 -0.027911 0.496258
vn 0.000000 -1.000000 -0.000003
vn 0.000000 -1.000000 -0.000003
vn 0.000000 -1.000000 -0.000003
vn 0.000000 -1.000000 -0.000003
vn 0.000000 -1.000000 -0.000003
vn 0.000000 -1.000000 -0.000003
vn -0.962125 -0.186036 0.199267
vn -0.962125 -0.186036 0.199267
vn -0.962125 -0.186036 0.199267
vn -0.962125 -0.186036 0.199267
vn 0.962824 -0.184350 0.197447
vn 0.962824 -0.184350 0.197447
vn 0.962824 -0.184350 0.197447
vn 0.962824 -0.184350 0.197447
vn 0.017035 0.920088 0.391341
vn 0.017035 0.920088 0.391341
vn 0.017035 0.920088 0.391341
vn 0.017035 0.920088 0.391341
vn -0.350090 -0.918034 0.186149
vn -0.350090 -0.918034 0.186149
vn -0.350090 -0.918034 0.186149
vn -0.350090 -0.918034 0.186149
vn 0.969969 0.149135 0.192143
vn 0.969969 0.149135 0.192143
vn 0.969969 0.149135 0.192143
vn 0.969969 0.149135 0.192143
vn -0.970064 0.148867 0.191871
vn -0.970064 0.148867 0.191871
vn -0.970064 0.148867 0.191871
vn -0.970064 0.148867 0.191871
vn 0.350795 -0.917462 0.187636
vn 0.350795 -0.917462 0.187636
vn 0.350795 -0.917462 0.187636
vn 0.350795 -0.917462 0.187636
vn -0.016231 0.919602 0.392515
vn -0.016231 0.919602 0.392515
vn -0.016231 0.919602 0.392515
vn -0.016231 0.919602 0.392515
vn -0.651627 0.185898 -0.735408
vn -0.651627 0.185898 -0.735408
vn -0.651627 0.185898 -0.735408
vn -0.651627 0.185898 -0.735408
vn 0.310450 0.186594 0.932096
vn 0.310450 0.186594 0.932096
vn 0.310450 0.186594 0.932096
vn 0.310450 0.186594 0.932096
vn 0.318927 0.148876 -0.936014
vn 0.318927 0.148876 -0.936014
vn 0.318927 0.148876 -0.936014
vn 0.318927 0.148876 -0.936014
vn -0.651358 0.148972 0.744003
vn -0.651358 0.148972 0.744003
vn -0.651358 0.148972 0.744003
vn -0.651358 0.148972 0.744003
vn 0.962660 0.186068 -0.196633
vn 0.962660 0.186068 -0.196633
vn 0.962660 0.186068 -0.196633
vn 0.962660 0.186068 -0.196633
vn -0.962436 0.186575 -0.197250
vn -0.962436 0.186575 -0.197250
vn -0.962436 0.186575 -0.197250
vn -0.962436 0.186575 -0.197250
vn 0.651169 0.148703 0.744222
vn 0.651169 0.148703 0.744222
vn 0.651169 0.148703 0.744222
vn 0.651169 0.148703 0.744222
vn -0.318642 0.149146 -0.936068
vn -0.318642 0.149146 -0.936068
vn -0.318642 0.149146 -0.936068
vn -0.318642 0.149146 -0.936068
vn -0.311097 0.186086 0.931982
vn -0.311097 0.186086 0.931982
vn -0.311097 0.186086 0.931982
vn -0.311097 0.186086 0.931982
vn 0.652042 0.186401 -0.734912
vn 0.652042 0.186401 -0.734912
vn 0.652042 0.186401 -0.734912
vn 0.652042 0.186401 -0.734912
vn -0.318312 -0.147806 0.936392
vn -0.318312 -0.147806 0.936392
vn -0.318312 -0.147806 0.936392
vn -0.318312 -0.147806 0.936392
vn 0.653716 -0.149692 -0.741787
vn 0.653716 -0.149692 -0.741787
vn 0.653716 -0.149692 -0.741787
vn 0.653716 -0.149692 -0.741787
vn 0.336248 -0.918055 0.210030
vn 0.336248 -0.918055 0.210030
vn 0.336248 -0.918055 0.210030
vn 0.336248 -0.918055 0.210030
vn 0.330363 0.920099 -0.210422
vn 0.330363 0.920099 -0.210422
vn 0.330363 0.920099 -0.210422
vn 0.330363 0.920099 -0.210422
vn 0.653632 -0.185863 0.733635
vn 0.653632 -0.185863 0.733635
vn 0.653632 -0.185863 0.733635
vn 0.653632 -0.185863 0.733635
vn -0.310472 -0.184366 -0.932532
vn -0.310472 -0.184366 -0.932532
vn -0.310472 -0.184366 -0.932532
vn -0.310472 -0.184366 -0.932532
vn -0.012820 -0.917473 -0.397591
vn -0.012820 -0.917473 -0.397591
vn -0.012820 -0.917473 -0.397591
vn -0.012820 -0.917473 -0.397591
vn 0.348095 0.919597 -0.182131
vn 0.348095 0.919597 -0.182131
vn 0.348095 0.919597 -0.182131
vn 0.348095 0.919597 -0.182131
vn 0.970085 -0.147794 -0.192592
vn 0.970085 -0.147794 -0.192592
vn 0.970085 -0.147794 -0.192592
vn 0.970085 -0.147794 -0.192592
vn -0.969229 -0.149855 -0.195293
vn -0.969229 -0.149855 -0.195293
vn -0.969229 -0.149855 -0.195293
vn -0.969229 -0.149855 -0.195293
vn 0.013758 -0.918047 -0.396234
vn 0.013758 -0.918047 -0.396234
vn 0.013758 -0.918047 -0.396234
vn 0.013758 -0.918047 -0.396234
vn -0.347479 0.920081 -0.180856
vn -0.347479 0.920081 -0.180856
vn -0.347479 0.920081 -0.180856
vn -0.347479 0.920081 -0.180856
vn 0.308552 -0.186053 -0.932834
vn 0.308552 -0.186053 -0.932834
vn 0.308552 -0.186053 -0.932834
vn 0.308552 -0.186053 -0.932834
vn -0.652405 -0.184178 0.735151
vn -0.652405 -0.184178 0.735151
vn -0.652405 -0.184178 0.735151
vn -0.652405 -0.184178 0.735151
vn -0.337883 -0.917485 0.209898
vn -0.337883 -0.917485 0.209898
vn -0.337883 -0.917485 0.209898
vn -0.337883 -0.917485 0.209898
vn -0.331781 0.919615 -0.210310
vn -0.331781 0.919615 -0.210310
vn -0.331781 0.919615 -0.210310
vn -0.331781 0.919615 -0.210310
vn -0.651815 -0.147639 -0.743868
vn -0.651815 -0.147639 -0.743868
vn -0.651815 -0.147638 -0.743868
vn -0.651815 -0.147639 -0.743868
vn 0.315542 -0.149867 0.937002
vn 0.315542 -0.149867 0.937002
vn 0.315542 -0.149867 0.937002
vn 0.315542 -0.149867 0.937002
s off
g Hexagonal_scalenohedron:pCone3
usemtl initialShadingGroup
f 37/124/1 38/121/2 39/122/3 40/123/4
f 41/128/5 37/125/6 42/126/7 43/127/8
f 44/132/9 41/129/10 45/130/11 46/131/12
s 1
f 38/135/13 44/132/14 47/133/15 48/134/16
s off
f 49/138/17 45/136/18 43/127/19 50/137/20
f 51/141/21 49/138/22 52/139/23 53/140/24
f 54/144/25 51/141/26 55/142/27 56/143/28
f 57/147/29 54/144/30 58/145/31 59/146/32
f 46/131/33 57/147/34 60/148/35 47/133/36
f 48/151/37 61/149/38 62/150/39 39/122/40
f 61/153/41 60/148/42 59/146/43 63/152/44
f 63/156/45 64/154/46 65/155/47 62/150/48
s 2
f 64/158/49 58/145/50 56/143/51 66/157/52
s off
f 66/161/53 67/159/54 68/160/55 65/155/56
f 67/163/57 55/142/58 53/140/59 69/162/60
f 69/166/61 70/164/62 71/165/63 68/160/64
s 3
f 70/168/65 52/139/66 50/137/67 72/167/68
s off
f 72/171/69 42/169/70 40/170/71 71/165/72
s 1
f 37/50/73 41/129/74 44/132/14 38/135/13
s off
f 49/52/75 51/53/76 54/144/77 57/147/78 46/131/79 45/130/80
s 1
f 48/134/16 47/133/15 60/148/81 61/55/82
s 2
f 63/152/83 59/146/84 58/145/50 64/56/49
f 66/157/52 56/143/51 55/142/85 67/57/86
s 3
f 69/162/87 53/140/88 52/139/66 70/58/65
f 72/167/68 50/137/67 43/127/89 42/59/90
s off
f 40/123/91 39/122/92 62/150/93 65/155/94 68/160/95 71/60/96
f 1/61/97 31/64/98 32/63/99 4/62/100
f 2/65/101 29/68/102 30/67/103 1/66/104
f 3/69/105 9/72/106 10/71/107 2/70/108
s 4
f 4/73/109 11/75/110 12/74/111 3/69/112
s off
f 5/76/113 28/78/114 29/68/115 10/77/116
f 6/79/117 24/81/118 25/80/119 5/76/120
f 7/82/121 20/84/122 21/83/123 6/79/124
f 8/85/125 16/87/126 17/86/127 7/82/128
f 9/72/129 12/74/130 13/88/131 8/85/132
f 11/89/133 32/63/134 33/91/135 14/90/136
f 14/92/137 15/93/138 16/87/139 13/88/140
f 15/94/141 33/91/142 34/96/143 18/95/144
s 5
f 18/97/145 19/98/146 20/84/147 17/86/148
s off
f 19/99/149 34/96/150 35/101/151 22/100/152
f 22/102/153 23/103/154 24/81/155 21/83/156
f 23/104/157 35/101/158 36/106/159 26/105/160
s 6
f 26/107/161 27/108/162 28/78/163 25/80/164
s off
f 27/109/165 36/106/166 31/111/167 30/110/168
s 4
f 1/112/169 4/73/109 3/69/112 2/70/170
s off
f 5/113/171 10/71/172 9/72/173 8/85/174 7/82/175 6/114/176
s 4
f 11/75/110 14/115/177 13/88/178 12/74/111
s 5
f 15/93/179 18/116/145 17/86/148 16/87/180
f 19/98/146 22/117/181 21/83/182 20/84/147
s 6
f 23/103/183 26/118/161 25/80/164 24/81/184
f 27/108/162 30/119/185 29/68/186 28/78/163
s off
f 31/64/187 36/120/188 35/101/189 34/96/190 33/91/191 32/63/192
f 4/40/193 32/16/194 39/122/195 38/121/196
f 31/2/197 1/1/198 37/124/199 40/123/200
f 1/4/201 30/5/202 42/126/203 37/125/204
f 29/10/205 2/3/206 41/128/207 43/127/208
f 2/6/209 10/54/210 45/130/211 41/129/212
f 9/39/213 3/7/214 44/132/215 46/131/216
f 3/7/217 12/15/218 47/133/219 44/132/220
f 11/8/221 4/51/222 38/135/223 48/134/224
f 10/9/225 29/10/226 43/127/227 45/136/228
f 28/34/229 5/11/230 49/138/231 50/137/232
f 5/11/233 25/33/234 52/139/235 49/138/236
f 24/29/237 6/12/238 51/141/239 53/140/240
f 6/12/241 21/28/242 55/142/243 51/141/244
f 20/24/245 7/13/246 54/144/247 56/143/248
f 7/13/249 17/23/250 58/145/251 54/144/252
f 16/19/253 8/14/254 57/147/255 59/146/256
f 8/14/257 13/18/258 60/148/259 57/147/260
f 12/15/261 9/39/262 46/131/263 47/133/264
f 14/42/265 33/21/266 62/150/267 61/149/268
f 32/16/269 11/41/270 48/151/271 39/122/272
f 13/18/273 16/19/274 59/146/275 60/148/276
f 15/20/277 14/17/278 61/153/279 63/152/280
f 18/44/281 34/26/282 65/155/283 64/154/284
f 33/21/285 15/43/286 63/156/287 62/150/288
f 17/23/289 20/24/290 56/143/291 58/145/292
f 19/25/293 18/22/294 64/158/295 66/157/296
f 22/46/297 35/31/298 68/160/299 67/159/300
f 34/26/301 19/45/302 66/161/303 65/155/304
f 21/28/305 24/29/306 53/140/307 55/142/308
f 23/30/309 22/27/310 67/163/311 69/162/312
f 26/48/313 36/38/314 71/165/315 70/164/316
f 35/31/317 23/47/318 69/166/319 68/160/320
f 25/33/321 28/34/322 50/137/323 52/139/324
f 27/35/325 26/32/326 70/168/327 72/167/328
f 30/36/329 31/37/330 40/170/331 42/169/332
f 36/38/333 27/49/334 72/171/335 71/165/336
