# This file uses centimeters as units for non-parametric coordinates.

mtllib Pentagon-tritetrahedron (tetartoid).mtl
g default
v 0.586975 0.584972 0.605818
v 0.477535 1.187406 -0.251735
v -0.873493 0.873493 0.888521
v -0.226409 0.460388 1.187387
v -0.467511 1.174040 0.231830
v 1.180596 -0.252456 0.486741
v 0.893529 0.883511 -0.891109
v 1.180596 0.232420 -0.486741
v 0.881507 -0.883511 0.886878
v 0.222402 -0.474414 1.184989
v -0.584972 0.586975 -0.605818
v 0.234423 0.468403 -1.191064
v 0.588979 -0.588979 -0.605818
v 0.485418 -1.179443 0.235277
v -0.596371 -0.590889 0.605818
v -1.188610 0.224405 0.486741
v -1.190614 -0.242438 -0.486741
v -0.470797 -1.192236 -0.244179
v -0.226409 -0.470407 -1.186583
v -0.883306 -0.877823 -0.906975
vn 0.000000 0.890700 0.454592
vn 0.000000 0.890700 0.454592
vn 0.000000 0.890700 0.454592
vn 0.000000 0.890700 0.454592
vn 0.000000 0.890700 0.454592
vn 0.900141 0.435598 0.000000
vn 0.900141 0.435598 0.000000
vn 0.900141 0.435598 0.000000
vn 0.900141 0.435598 0.000000
vn 0.900141 0.435598 0.000000
vn 0.461882 0.000000 0.886942
vn 0.461882 0.000000 0.886942
vn 0.461882 0.000000 0.886942
vn 0.461882 0.000000 0.886942
vn 0.461882 0.000000 0.886942
vn 0.000000 0.890700 -0.454592
vn 0.000000 0.890700 -0.454592
vn 0.000000 0.890700 -0.454592
vn 0.000000 0.890700 -0.454592
vn 0.000000 0.890700 -0.454592
vn 0.900141 -0.435598 0.000000
vn 0.900141 -0.435598 0.000000
vn 0.900141 -0.435598 0.000000
vn 0.900141 -0.435598 0.000000
vn 0.900141 -0.435598 0.000000
vn -0.461882 0.000000 0.886942
vn -0.461882 0.000000 0.886942
vn -0.461882 0.000000 0.886942
vn -0.461882 0.000000 0.886942
vn -0.461882 0.000000 0.886942
vn -0.900141 0.435598 0.000000
vn -0.900141 0.435598 0.000000
vn -0.900141 0.435598 0.000000
vn -0.900141 0.435598 0.000000
vn -0.900141 0.435598 0.000000
vn 0.000000 -0.890700 0.454592
vn 0.000000 -0.890700 0.454592
vn 0.000000 -0.890700 0.454592
vn 0.000000 -0.890700 0.454592
vn 0.000000 -0.890700 0.454592
vn 0.461882 0.000000 -0.886942
vn 0.461882 0.000000 -0.886942
vn 0.461882 0.000000 -0.886942
vn 0.461882 0.000000 -0.886942
vn 0.461882 0.000000 -0.886942
vn -0.461882 0.000000 -0.886942
vn -0.461882 0.000000 -0.886942
vn -0.461882 0.000000 -0.886942
vn -0.461882 0.000000 -0.886942
vn -0.461882 0.000000 -0.886942
vn -0.900141 -0.435598 0.000000
vn -0.900141 -0.435598 0.000000
vn -0.900141 -0.435598 0.000000
vn -0.900141 -0.435598 0.000000
vn -0.900141 -0.435598 0.000000
vn 0.000000 -0.890700 -0.454592
vn 0.000000 -0.890700 -0.454592
vn 0.000000 -0.890700 -0.454592
vn 0.000000 -0.890700 -0.454592
vn 0.000000 -0.890700 -0.454592
s off
g Pentagon_tritetrahedron__tetartoid_:Mesh
usemtl lambert40SG
f 1//1 2//2 5//3 3//4 4//5
f 1//6 6//7 8//8 7//9 2//10
f 1//11 4//12 10//13 9//14 6//15
f 2//16 7//17 12//18 11//19 5//20
f 6//21 9//22 14//23 13//24 8//25
f 4//26 3//27 16//28 15//29 10//30
f 5//31 11//32 17//33 16//34 3//35
f 15//36 18//37 14//38 9//39 10//40
f 13//41 19//42 12//43 7//44 8//45
f 20//46 17//47 11//48 12//49 19//50
f 20//51 18//52 15//53 16//54 17//55
f 20//56 19//57 13//58 14//59 18//60
