# This file uses centimeters as units for non-parametric coordinates.

mtllib Pentagonal dodecahedron_A.mtl
g default
v 0.674630 0.668540 0.595669
v 0.662178 0.675028 0.601955
v 0.668989 0.662305 0.608776
v 0.483920 0.976119 -0.008117
v 0.484225 0.976299 0.007763
v 0.496292 0.971149 -0.000000
v -0.496292 0.971149 0.000000
v -0.483920 0.976119 0.008117
v -0.483920 0.976119 -0.008117
v -0.668989 0.662305 0.608776
v -0.662578 0.674959 0.602096
v -0.674630 0.668540 0.595669
v 0.007763 0.471504 0.975916
v 0.000000 0.483468 0.970530
v -0.007763 0.471504 0.975916
v 0.976670 -0.007812 0.478416
v 0.976647 0.007862 0.478363
v 0.970541 0.000000 0.490500
v 0.970541 -0.000000 -0.490500
v 0.976670 0.007812 -0.478416
v 0.976670 -0.007812 -0.478416
v 0.662578 0.674959 -0.602096
v 0.674660 0.668446 -0.595461
v 0.669058 0.662487 -0.608726
v -0.000000 -0.483468 0.970530
v 0.008099 -0.471205 0.975729
v -0.008099 -0.471205 0.975729
v 0.674660 -0.668446 0.595461
v 0.668989 -0.662305 0.608776
v 0.662178 -0.675028 0.601955
v -0.007763 0.471504 -0.975916
v -0.000000 0.483468 -0.970530
v 0.007763 0.471504 -0.975916
v -0.674630 0.668540 -0.595669
v -0.662178 0.675028 -0.601955
v -0.668989 0.662305 -0.608776
v 0.484225 -0.976299 -0.007763
v 0.496292 -0.971149 0.000000
v 0.484225 -0.976299 0.007763
v 0.669058 -0.662487 -0.608726
v 0.674630 -0.668540 -0.595669
v 0.662578 -0.674959 -0.602096
v -0.976647 -0.007862 0.478363
v -0.970541 -0.000000 0.490500
v -0.976647 0.007862 0.478363
v -0.662178 -0.675028 0.601955
v -0.669058 -0.662487 0.608726
v -0.674660 -0.668446 0.595461
v -0.976670 -0.007812 -0.478416
v -0.976647 0.007862 -0.478363
v -0.970541 0.000000 -0.490500
v -0.483920 -0.976119 -0.008117
v -0.484225 -0.976299 0.007763
v -0.496292 -0.971149 -0.000000
v -0.008099 -0.471205 -0.975729
v 0.007763 -0.471504 -0.975916
v 0.000000 -0.483468 -0.970530
v -0.674660 -0.668446 -0.595461
v -0.668989 -0.662305 -0.608776
v -0.662178 -0.675028 -0.601955
v 0.679085 0.671433 0.596853
v 0.671932 0.664090 0.612844
v 0.974069 -0.000009 0.494603
v 0.981646 0.009152 0.479548
v 0.663692 0.679339 0.604752
v 0.499463 0.975249 0.000006
v 0.485273 0.981308 0.009301
v -0.000013 0.486960 0.974440
v 0.009481 0.472578 0.980917
v 0.484856 0.981109 -0.009973
v 0.679285 0.671302 -0.596385
v 0.664246 0.679168 -0.604917
v -0.484910 0.981110 -0.009781
v -0.484863 0.981129 0.009864
v -0.499426 0.975278 -0.000012
v -0.663709 0.679309 -0.604767
v -0.679107 0.671449 -0.596811
v -0.679170 0.671418 0.596731
v -0.664225 0.679171 0.604927
v -0.671934 0.664041 0.612866
v -0.981646 0.009145 0.479552
v -0.974071 -0.000022 0.494607
v -0.009440 0.472578 0.980917
v -0.009899 -0.472221 0.980729
v 0.009881 -0.472221 0.980729
v 0.981671 -0.009060 0.479613
v 0.671954 -0.664128 0.612796
v 0.679172 -0.671319 0.596559
v 0.981671 -0.009072 -0.479610
v 0.981669 0.009050 -0.479613
v 0.974035 0.000013 -0.494664
v 0.679171 -0.671398 -0.596734
v 0.672010 -0.664272 -0.612784
v 0.672023 0.664299 -0.612761
v 0.009474 0.472555 -0.980927
v 0.000007 0.486952 -0.974444
v 0.000005 -0.486831 0.974534
v -0.672034 -0.664350 0.612719
v -0.663687 -0.679349 0.604756
v 0.663708 -0.679333 0.604766
v 0.485225 -0.981309 0.009426
v 0.498849 -0.975594 0.000002
v -0.009465 0.472600 -0.980906
v 0.009379 -0.472604 -0.980926
v -0.009970 -0.472192 -0.980718
v -0.671932 0.664090 -0.612844
v -0.974069 -0.000009 -0.494603
v -0.981646 0.009152 -0.479548
v 0.485269 -0.981290 -0.009412
v -0.485273 -0.981308 0.009325
v -0.484858 -0.981109 -0.009919
v 0.664190 -0.679215 -0.604903
v -0.000008 -0.486896 -0.974488
v -0.981648 -0.009111 0.479549
v -0.981671 -0.009060 -0.479613
v -0.679185 -0.671322 0.596525
v -0.499471 -0.975245 -0.000013
v -0.671954 -0.664128 -0.612796
v -0.679197 -0.671336 -0.596514
v -0.663725 -0.679302 -0.604781
vn 0.711803 0.563611 0.419141
vn 0.568332 0.439313 0.695703
vn 0.837420 -0.001280 0.546559
vn 0.956399 0.134131 0.259441
vn 0.420177 0.712455 0.562014
vn 0.547287 0.836944 0.001192
vn 0.234573 0.966085 0.107959
vn 0.000050 0.572173 0.820133
vn 0.133773 0.267580 0.954204
vn 0.235754 0.965060 -0.114368
vn 0.712628 0.565925 -0.414597
vn 0.423499 0.711978 -0.560121
vn -0.233160 0.965422 -0.116604
vn -0.234794 0.965990 0.108328
vn -0.543047 0.839699 -0.002444
vn -0.417737 0.714155 -0.561675
vn -0.708526 0.567005 -0.420114
vn -0.710560 0.565861 0.418218
vn -0.422484 0.711394 0.561627
vn -0.569784 0.436258 0.696438
vn -0.956242 0.134359 0.259903
vn -0.838383 -0.000854 0.545080
vn -0.133967 0.263229 0.955386
vn -0.135633 -0.267959 0.953835
vn 0.136384 -0.267317 0.953908
vn 0.956520 -0.134077 0.259023
vn 0.569173 -0.437206 0.696342
vn 0.714742 -0.561153 0.417434
vn 0.956709 -0.133467 -0.258639
vn 0.956673 0.135249 -0.257848
vn 0.838506 0.001788 -0.544890
vn 0.715935 -0.559578 -0.417504
vn 0.569863 -0.437755 -0.695432
vn 0.570609 0.438721 -0.694211
vn 0.130434 0.265208 -0.955328
vn -0.001209 0.573131 -0.819463
vn 0.001234 -0.569938 0.821687
vn -0.569948 -0.439075 0.694530
vn -0.422535 -0.709781 0.563627
vn 0.422909 -0.707662 0.566005
vn 0.238310 -0.965163 0.108020
vn 0.551013 -0.834493 0.002640
vn -0.137826 0.268963 -0.953238
vn 0.131375 -0.267286 -0.954620
vn -0.139783 -0.267162 -0.953460
vn -0.568786 0.439077 -0.695481
vn -0.837420 -0.001294 -0.546559
vn -0.956514 0.133965 -0.259105
vn 0.237542 -0.964720 -0.113536
vn -0.240337 -0.964518 0.109283
vn -0.237126 -0.964369 -0.117319
vn 0.423757 -0.709487 -0.563080
vn -0.002203 -0.570407 -0.821359
vn -0.957221 -0.134080 0.256419
vn -0.956627 -0.133923 -0.258706
vn -0.714030 -0.563880 0.414971
vn -0.546381 -0.837536 -0.001240
vn -0.569015 -0.437286 -0.696422
vn -0.709728 -0.567506 -0.417401
vn -0.420866 -0.710503 -0.563966
vn -0.710456 -0.566421 -0.417635
vn -0.958238 -0.131458 -0.253968
vn -0.837400 0.001176 -0.546589
vn -0.566900 -0.439914 -0.696491
vn -0.420240 -0.712731 -0.561616
vn -0.233954 -0.966259 -0.107750
vn -0.547408 -0.836865 -0.001371
vn -0.134577 -0.268980 -0.953698
vn -0.000032 -0.572283 -0.820057
vn -0.233703 -0.965663 0.113484
vn -0.423158 -0.711883 0.560500
vn -0.711502 -0.568236 0.413369
vn 0.233605 -0.966336 -0.107815
vn 0.232346 -0.965655 0.116299
vn 0.543176 -0.839615 0.002662
vn 0.707184 -0.569744 0.418668
vn 0.417810 -0.714453 0.561241
vn 0.422335 -0.711492 -0.561616
vn 0.709348 -0.568367 -0.416875
vn 0.567829 -0.437127 -0.697489
vn 0.838367 0.001175 -0.545105
vn 0.958286 -0.131373 -0.253830
vn 0.135055 -0.265147 -0.954703
vn -0.137464 0.269231 -0.953215
vn 0.136602 0.269673 -0.953214
vn -0.958275 0.131502 -0.253804
vn -0.712082 0.566060 -0.415349
vn -0.567113 0.438100 -0.697461
vn -0.958713 -0.132223 0.251766
vn -0.958724 0.130486 0.252629
vn -0.838489 -0.001366 0.544917
vn -0.567555 0.438802 0.696659
vn -0.712867 0.565343 0.414979
vn -0.568455 -0.439671 0.695376
vn 0.001272 -0.573243 0.819385
vn -0.131630 -0.267318 0.954576
vn -0.001222 0.570076 -0.821591
vn 0.422321 0.709764 -0.563808
vn 0.567881 0.439962 -0.695662
vn -0.423136 0.708830 -0.564371
vn -0.550240 0.835003 -0.002543
vn -0.237422 0.965374 -0.108090
vn 0.138661 -0.270444 0.952698
vn 0.140718 0.268853 0.952846
vn -0.132471 0.269172 0.953938
vn 0.566900 -0.439915 0.696491
vn 0.958387 -0.131231 0.253521
vn 0.837400 0.001176 0.546589
vn -0.236193 0.965066 0.113402
vn 0.235802 0.964762 0.116753
vn 0.239220 0.964846 -0.108842
vn -0.423989 0.710674 0.561406
vn 0.002636 0.570529 0.821273
vn 0.958918 0.131551 -0.251337
vn 0.958423 0.131281 0.253358
vn 0.712911 0.566206 -0.413726
vn 0.546499 0.837459 0.001414
vn 0.708824 0.569375 0.416390
vn 0.567113 0.438100 0.697461
vn 0.420719 0.710569 0.563992
vn -0.667576 -0.414163 0.618717
vn -0.667576 -0.414163 0.618717
vn -0.667576 -0.414163 0.618717
vn -0.667576 -0.414163 0.618717
vn 0.137874 0.233690 -0.962486
vn 0.137874 0.233690 -0.962486
vn 0.137874 0.233690 -0.962486
vn 0.137874 0.233690 -0.962486
vn 0.628139 -0.601020 -0.494183
vn 0.628139 -0.601020 -0.494183
vn 0.628139 -0.601020 -0.494183
vn 0.628139 -0.601020 -0.494183
vn -0.937341 0.102773 0.332911
vn -0.937341 0.102773 0.332911
vn -0.937341 0.102773 0.332911
vn -0.937341 0.102773 0.332911
vn -0.512120 0.614389 -0.600216
vn -0.512120 0.614389 -0.600216
vn -0.512120 0.614389 -0.600216
vn -0.512120 0.614389 -0.600216
vn 0.336936 -0.933707 0.121098
vn 0.336936 -0.933708 0.121098
vn 0.336936 -0.933707 0.121098
vn 0.336936 -0.933707 0.121098
vn 0.609448 -0.617381 0.497407
vn 0.609448 -0.617381 0.497407
vn 0.609448 -0.617381 0.497407
vn 0.609448 -0.617381 0.497407
vn -0.938377 0.096907 -0.331751
vn -0.938376 0.096907 -0.331751
vn -0.938376 0.096907 -0.331751
vn -0.938376 0.096907 -0.331751
vn -0.000093 -0.332592 -0.943071
vn -0.000093 -0.332592 -0.943071
vn -0.000093 -0.332592 -0.943071
vn -0.000093 -0.332592 -0.943071
vn 0.000508 -0.311604 0.950212
vn 0.000508 -0.311604 0.950212
vn 0.000508 -0.311604 0.950212
vn 0.000508 -0.311604 0.950212
vn 0.938918 0.095740 -0.330556
vn 0.938918 0.095740 -0.330557
vn 0.938918 0.095740 -0.330556
vn 0.938918 0.095740 -0.330557
vn -0.629456 -0.599787 0.494005
vn -0.629456 -0.599787 0.494005
vn -0.629456 -0.599787 0.494005
vn -0.629456 -0.599787 0.494005
vn -0.621715 -0.606753 -0.495299
vn -0.621715 -0.606753 -0.495299
vn -0.621715 -0.606753 -0.495299
vn -0.621715 -0.606753 -0.495299
vn 0.938009 0.098408 0.332347
vn 0.938009 0.098408 0.332347
vn 0.938009 0.098408 0.332347
vn 0.938009 0.098408 0.332347
vn -0.127694 0.229371 -0.964927
vn -0.127694 0.229371 -0.964927
vn -0.127694 0.229371 -0.964927
vn -0.127694 0.229371 -0.964927
vn 0.669866 -0.414716 0.615866
vn 0.669866 -0.414716 0.615866
vn 0.669866 -0.414716 0.615866
vn 0.669866 -0.414716 0.615866
vn -0.335502 -0.934603 0.118135
vn -0.335502 -0.934603 0.118135
vn -0.335502 -0.934603 0.118135
vn -0.335502 -0.934603 0.118135
vn 0.509398 0.626170 -0.590276
vn 0.509398 0.626169 -0.590276
vn 0.509398 0.626169 -0.590276
vn 0.509398 0.626169 -0.590276
vn -0.944510 0.000463 -0.328481
vn -0.944510 0.000463 -0.328481
vn -0.944510 0.000463 -0.328481
vn -0.944510 0.000463 -0.328481
vn 0.943838 0.000434 -0.330408
vn 0.943838 0.000434 -0.330408
vn 0.943838 0.000434 -0.330408
vn 0.943838 0.000434 -0.330408
vn -0.663572 0.413184 0.623659
vn -0.663572 0.413184 0.623659
vn -0.663572 0.413184 0.623659
vn -0.663572 0.413184 0.623659
vn 0.132547 -0.231057 -0.963869
vn 0.132547 -0.231057 -0.963869
vn 0.132547 -0.231057 -0.963869
vn 0.132547 -0.231057 -0.963869
vn -0.243135 -0.969992 0.000006
vn -0.243135 -0.969992 0.000006
vn -0.243135 -0.969992 0.000006
vn -0.243135 -0.969992 0.000006
vn -0.245171 0.969480 -0.000082
vn -0.245171 0.969480 -0.000082
vn -0.245171 0.969480 -0.000082
vn -0.245171 0.969480 -0.000082
vn 0.129176 -0.229907 0.964602
vn 0.129176 -0.229907 0.964602
vn 0.129176 -0.229907 0.964602
vn 0.129176 -0.229907 0.964602
vn -0.670605 0.414614 -0.615129
vn -0.670605 0.414614 -0.615129
vn -0.670605 0.414614 -0.615129
vn -0.670605 0.414614 -0.615129
vn -0.667960 -0.413982 -0.618424
vn -0.667960 -0.413983 -0.618424
vn -0.667960 -0.413982 -0.618424
vn -0.667960 -0.413983 -0.618424
vn 0.117673 0.224729 0.967290
vn 0.117673 0.224729 0.967290
vn 0.117673 0.224729 0.967290
vn 0.117673 0.224729 0.967290
vn 0.337239 -0.933581 -0.121227
vn 0.337239 -0.933581 -0.121227
vn 0.337239 -0.933581 -0.121227
vn 0.337239 -0.933581 -0.121227
vn -0.509221 0.627013 0.589532
vn -0.509221 0.627013 0.589532
vn -0.509221 0.627013 0.589532
vn -0.509221 0.627013 0.589532
vn -0.337234 0.933745 0.119977
vn -0.337233 0.933745 0.119977
vn -0.337233 0.933745 0.119977
vn -0.337234 0.933745 0.119977
vn 0.510309 -0.624027 -0.591756
vn 0.510309 -0.624027 -0.591756
vn 0.510309 -0.624027 -0.591756
vn 0.510309 -0.624027 -0.591756
vn -0.509850 -0.626254 -0.589795
vn -0.509850 -0.626254 -0.589795
vn -0.509850 -0.626254 -0.589795
vn -0.509850 -0.626254 -0.589795
vn 0.335817 0.934575 0.117456
vn 0.335817 0.934575 0.117456
vn 0.335817 0.934575 0.117456
vn 0.335817 0.934575 0.117456
vn -0.938978 -0.096338 0.330211
vn -0.938978 -0.096338 0.330211
vn -0.938978 -0.096338 0.330211
vn -0.938978 -0.096338 0.330211
vn 0.663161 0.567193 -0.488374
vn 0.663161 0.567193 -0.488374
vn 0.663161 0.567194 -0.488374
vn 0.663161 0.567194 -0.488374
vn 0.949040 -0.000047 0.315155
vn 0.949040 -0.000047 0.315155
vn 0.949040 -0.000047 0.315155
vn 0.949040 -0.000047 0.315155
vn -0.941464 0.000487 0.337113
vn -0.941464 0.000487 0.337113
vn -0.941464 0.000487 0.337113
vn -0.941464 0.000487 0.337113
vn -0.337994 -0.933023 -0.123405
vn -0.337994 -0.933023 -0.123405
vn -0.337994 -0.933023 -0.123405
vn -0.337994 -0.933023 -0.123405
vn 0.511460 0.617768 0.597303
vn 0.511460 0.617768 0.597303
vn 0.511460 0.617768 0.597303
vn 0.511460 0.617768 0.597303
vn 0.667576 -0.414163 -0.618717
vn 0.667576 -0.414163 -0.618717
vn 0.667576 -0.414163 -0.618717
vn 0.667576 -0.414163 -0.618717
vn -0.133842 0.231990 0.963466
vn -0.133842 0.231990 0.963466
vn -0.133842 0.231990 0.963466
vn -0.133842 0.231990 0.963466
vn -0.000049 0.306451 0.951887
vn -0.000049 0.306451 0.951887
vn -0.000049 0.306451 0.951887
vn -0.000049 0.306451 0.951887
vn 0.000481 0.326780 -0.945100
vn 0.000481 0.326780 -0.945100
vn 0.000481 0.326780 -0.945100
vn 0.000481 0.326780 -0.945100
vn -0.935946 -0.107233 -0.335421
vn -0.935946 -0.107233 -0.335421
vn -0.935946 -0.107233 -0.335421
vn -0.935946 -0.107233 -0.335421
vn 0.660001 0.570478 0.488829
vn 0.660001 0.570478 0.488829
vn 0.660001 0.570478 0.488829
vn 0.660001 0.570478 0.488829
vn -0.509466 -0.626101 0.590290
vn -0.509466 -0.626101 0.590290
vn -0.509466 -0.626101 0.590290
vn -0.509466 -0.626101 0.590290
vn 0.339251 0.932263 -0.125678
vn 0.339251 0.932263 -0.125678
vn 0.339251 0.932263 -0.125678
vn 0.339251 0.932263 -0.125678
vn 0.249284 0.968430 0.000004
vn 0.249284 0.968430 0.000004
vn 0.249284 0.968430 0.000004
vn 0.249284 0.968430 0.000004
vn 0.242230 -0.970219 -0.000057
vn 0.242230 -0.970219 -0.000057
vn 0.242230 -0.970219 -0.000057
vn 0.242230 -0.970219 -0.000057
vn -0.128524 -0.229456 -0.964796
vn -0.128524 -0.229456 -0.964796
vn -0.128524 -0.229456 -0.964796
vn -0.128524 -0.229456 -0.964796
vn 0.660994 0.412339 0.626948
vn 0.660994 0.412339 0.626948
vn 0.660994 0.412339 0.626948
vn 0.660994 0.412339 0.626948
vn -0.618887 0.609136 -0.495916
vn -0.618887 0.609136 -0.495916
vn -0.618887 0.609136 -0.495916
vn -0.618887 0.609136 -0.495916
vn 0.937659 -0.101565 0.332387
vn 0.937659 -0.101565 0.332387
vn 0.937659 -0.101565 0.332387
vn 0.937659 -0.101565 0.332387
vn 0.663572 0.413184 -0.623659
vn 0.663572 0.413184 -0.623659
vn 0.663572 0.413184 -0.623659
vn 0.663572 0.413184 -0.623659
vn -0.128220 -0.229221 0.964892
vn -0.128220 -0.229221 0.964892
vn -0.128220 -0.229221 0.964892
vn -0.128220 -0.229221 0.964892
vn -0.619473 0.608604 0.495838
vn -0.619473 0.608604 0.495838
vn -0.619473 0.608604 0.495838
vn -0.619473 0.608603 0.495838
vn 0.940648 -0.088694 -0.327589
vn 0.940648 -0.088694 -0.327589
vn 0.940648 -0.088694 -0.327589
vn 0.940648 -0.088694 -0.327589
vn 0.510223 -0.624163 0.591687
vn 0.510223 -0.624163 0.591687
vn 0.510223 -0.624163 0.591687
vn 0.510223 -0.624163 0.591687
vn -0.333662 0.935920 -0.112798
vn -0.333662 0.935920 -0.112798
vn -0.333662 0.935920 -0.112798
vn -0.333662 0.935920 -0.112798
s 1
g Pentagonal_dodecahedron:Mesh
usemtl initialShadingGroup
f 61//1 62//2 63//3 64//4
f 65//5 61//1 66//6 67//7
f 62//2 65//5 68//8 69//9
f 70//10 66//6 71//11 72//12
f 67//7 70//10 73//13 74//14
f 75//15 73//13 76//16 77//17
f 74//14 75//15 78//18 79//19
f 80//20 78//18 81//21 82//22
f 79//19 80//20 83//23 68//8
f 69//9 83//23 84//24 85//25
f 86//26 63//3 87//27 88//28
f 64//4 86//26 89//29 90//30
f 91//31 89//29 92//32 93//33
f 90//30 91//31 94//34 71//11
f 72//12 94//34 95//35 96//36
f 97//37 84//24 98//38 99//39
f 85//25 97//37 100//40 87//27
f 88//28 100//40 101//41 102//42
f 103//43 95//35 104//44 105//45
f 96//36 103//43 106//46 76//16
f 77//17 106//46 107//47 108//48
f 109//49 101//41 110//50 111//51
f 102//42 109//49 112//52 92//32
f 93//33 112//52 113//53 104//44
f 114//54 81//21 108//48 115//55
f 82//22 114//54 116//56 98//38
f 99//39 116//56 117//57 110//50
f 115//55 107//47 118//58 119//59
f 111//51 117//57 119//59 120//60
f 105//45 113//53 120//60 118//58
f 61//1 65//5 62//2
f 70//10 67//7 66//6
f 75//15 74//14 73//13
f 80//20 79//19 78//18
f 69//9 68//8 83//23
f 86//26 64//4 63//3
f 91//31 90//30 89//29
f 72//12 71//11 94//34
f 97//37 85//25 84//24
f 88//28 87//27 100//40
f 103//43 96//36 95//35
f 77//17 76//16 106//46
f 109//49 102//42 101//41
f 93//33 92//32 112//52
f 114//54 82//22 81//21
f 99//39 98//38 116//56
f 115//55 108//48 107//47
f 111//51 110//50 117//57
f 105//45 104//44 113//53
f 119//59 118//58 120//60
s 2
f 1//61 17//62 18//63 3//64
f 2//65 5//66 6//67 1//61
f 3//64 13//68 14//69 2//65
f 4//70 22//71 23//72 6//67
f 5//66 8//73 9//74 4//70
f 7//75 34//76 35//77 9//74
f 8//73 11//78 12//79 7//75
f 10//80 44//81 45//82 12//79
f 11//78 14//69 15//83 10//80
f 13//68 26//84 27//85 15//83
f 16//86 28//87 29//88 18//63
f 17//62 20//89 21//90 16//86
f 19//91 40//92 41//93 21//90
f 20//89 23//72 24//94 19//91
f 22//71 32//95 33//96 24//94
f 25//97 46//98 47//99 27//85
f 26//84 29//88 30//100 25//97
f 28//87 38//101 39//102 30//100
f 31//103 55//104 56//105 33//96
f 32//95 35//77 36//106 31//103
f 34//76 50//107 51//108 36//106
f 37//109 52//110 53//111 39//102
f 38//101 41//93 42//112 37//109
f 40//92 56//105 57//113 42//112
f 43//114 49//115 50//107 45//82
f 44//81 47//99 48//116 43//114
f 46//98 53//111 54//117 48//116
f 49//115 58//118 59//119 51//108
f 52//110 60//120 58//118 54//117
f 55//104 59//119 60//120 57//113
f 1//61 3//64 2//65
f 4//70 6//67 5//66
f 7//75 9//74 8//73
f 10//80 12//79 11//78
f 13//68 15//83 14//69
f 16//86 18//63 17//62
f 19//91 21//90 20//89
f 22//71 24//94 23//72
f 25//97 27//85 26//84
f 28//87 30//100 29//88
f 31//103 33//96 32//95
f 34//76 36//106 35//77
f 37//109 39//102 38//101
f 40//92 42//112 41//93
f 43//114 45//82 44//81
f 46//98 48//116 47//99
f 49//115 51//108 50//107
f 52//110 54//117 53//111
f 55//104 57//113 56//105
f 58//118 60//120 59//119
s off
f 3//121 18//122 63//123 62//124
f 17//125 1//126 61//127 64//128
f 1//129 6//130 66//131 61//132
f 5//133 2//134 65//135 67//136
f 2//137 14//138 68//139 65//140
f 13//141 3//142 62//143 69//144
f 6//145 23//146 71//147 66//148
f 22//149 4//150 70//151 72//152
f 4//153 9//154 73//155 70//156
f 8//157 5//158 67//159 74//160
f 9//161 35//162 76//163 73//164
f 34//165 7//166 75//167 77//168
f 7//169 12//170 78//171 75//172
f 11//173 8//174 74//175 79//176
f 12//177 45//178 81//179 78//180
f 44//181 10//182 80//183 82//184
f 10//185 15//186 83//187 80//188
f 14//189 11//190 79//191 68//192
f 15//193 27//194 84//195 83//196
f 26//197 13//198 69//199 85//200
f 18//201 29//202 87//203 63//204
f 28//205 16//206 86//207 88//208
f 16//209 21//210 89//211 86//212
f 20//213 17//214 64//215 90//216
f 21//217 41//218 92//219 89//220
f 40//221 19//222 91//223 93//224
f 19//225 24//226 94//227 91//228
f 23//229 20//230 90//231 71//232
f 24//233 33//234 95//235 94//236
f 32//237 22//238 72//239 96//240
f 27//241 47//242 98//243 84//244
f 46//245 25//246 97//247 99//248
f 25//249 30//250 100//251 97//252
f 29//253 26//254 85//255 87//256
f 30//257 39//258 101//259 100//260
f 38//261 28//262 88//263 102//264
f 33//265 56//266 104//267 95//268
f 55//269 31//270 103//271 105//272
f 31//273 36//274 106//275 103//276
f 35//277 32//278 96//279 76//280
f 36//281 51//282 107//283 106//284
f 50//285 34//286 77//287 108//288
f 39//289 53//290 110//291 101//292
f 52//293 37//294 109//295 111//296
f 37//297 42//298 112//299 109//300
f 41//301 38//302 102//303 92//304
f 42//305 57//306 113//307 112//308
f 56//309 40//310 93//311 104//312
f 45//313 50//314 108//315 81//316
f 49//317 43//318 114//319 115//320
f 43//321 48//322 116//323 114//324
f 47//325 44//326 82//327 98//328
f 48//329 54//330 117//331 116//332
f 53//333 46//334 99//335 110//336
f 51//337 59//338 118//339 107//340
f 58//341 49//342 115//343 119//344
f 54//345 58//346 119//347 117//348
f 60//349 52//350 111//351 120//352
f 57//353 60//354 120//355 113//356
f 59//357 55//358 105//359 118//360
